<svg xmlns="http://www.w3.org/2000/svg" width="24" height="24" fill="none"><g clip-path="url(#a)"><path fill="#FFA589" d="M11.371 6.644c-.236-2.025-.485-4.162-.485-6.644h2.228c0 2.454-.248 4.589-.484 6.615-.192 1.652-.376 3.232-.41 4.854 1.119-1.167 2.098-2.405 3.123-3.701 1.265-1.599 2.6-3.286 4.354-5.041l1.576 1.576c-1.735 1.735-3.42 3.069-5.02 4.335l-.002.001c-1.303 1.032-2.55 2.018-3.72 3.141 1.616-.034 3.184-.217 4.825-.409 2.025-.236 4.162-.485 6.644-.485v2.228c-2.454 0-4.589-.248-6.615-.484h-.002c-1.65-.192-3.23-.376-4.852-.41 1.166 1.118 2.403 2.096 3.699 3.121l.002.002c1.598 1.264 3.286 2.6 5.041 4.354l-1.576 1.576c-1.735-1.735-3.069-3.42-4.335-5.02l-.003-.004-.002-.003c-1.03-1.301-2.016-2.546-3.137-3.715.034 1.622.218 3.202.41 4.854.236 2.026.484 4.161.484 6.615h-2.228c0-2.482.25-4.62.485-6.644v-.003c.192-1.64.375-3.207.409-4.822-1.12 1.17-2.106 2.414-3.137 3.715l-.002.003-.003.004c-1.266 1.6-2.6 3.285-4.335 5.02l-1.576-1.576c1.755-1.755 3.443-3.09 5.041-4.354l.002-.002c1.296-1.024 2.533-2.003 3.699-3.121-1.622.034-3.202.218-4.854.41-2.026.236-4.161.484-6.615.484v-2.228c2.482 0 4.62.25 6.644.485 1.641.192 3.209.375 4.825.409-1.171-1.123-2.418-2.11-3.722-3.142-1.6-1.266-3.285-2.6-5.02-4.335l1.576-1.576c1.754 1.755 3.09 3.442 4.354 5.04 1.025 1.297 2.004 2.535 3.123 3.702-.034-1.615-.217-3.182-.408-4.822v-.003Z"/></g><defs><clipPath id="a"><path fill="#fff" d="M0 0h24v24H0z"/></clipPath></defs></svg>