<svg xmlns="http://www.w3.org/2000/svg" width="231" height="42" fill="none"><g clip-path="url(#a)"><g fill="#fff" clip-path="url(#b)"><path d="M23.11 19.967H2.938V1.633c11.14 0 20.172 8.209 20.172 18.334Zm20.173 0V1.633c-11.14 0-20.173 8.209-20.173 18.334h20.173ZM23.11 38.299H2.938V19.967c11.14 0 20.172 8.207 20.172 18.332Zm0 0h20.173V19.967c-11.14 0-20.173 8.207-20.173 18.332Zm50.781.016c-3.874 0-7.263-1.23-9.974-3.74-2.76-2.463-4.503-6.907-4.503-12.583 0-10.032 6.488-15.797 14.477-15.797 7.89 0 14.331 5.897 14.331 15.93 0 5.675-1.695 10.075-4.407 12.54-2.758 2.463-6.1 3.65-9.924 3.65Zm9.247-5.367V11.652h-18.64v21.296h18.64Zm22.721 4.7h-4.89l-10.313-23.32h4.988l7.019 17.953h1.647l6.971-17.953h4.89l-10.312 23.32Zm30.429-7.435h4.794c0 4.267-4.453 8.095-11.669 8.095-7.115 0-12.007-4.883-12.007-12.32 0-7.435 4.94-12.32 11.767-12.32 6.825 0 11.619 4.752 11.619 12.32v1.277h-18.544v5.808h14.04v-2.86Zm-13.99-6.293h13.75v-5.103h-13.75v5.103Zm27.806 13.725h-4.698v-23.32h4.503v2.51h.097c1.017-1.805 3.147-2.905 5.278-2.905 1.985 0 5.567.924 5.567 5.104h-10.747v18.611Zm16.714-7.302V19.386h-4.841v-5.06h4.938v-5.72h4.503v5.72h5.132v5.06h-5.082V32.19h5.082v5.456h-2.13c-5.568 0-7.602-2.376-7.602-7.303Zm24.326 7.965c-6.825 0-11.765-4.575-11.765-12.32 0-7.61 5.134-12.32 11.765-12.32 6.536 0 11.62 4.71 11.62 12.32 0 7.745-4.841 12.32-11.62 12.32Zm6.973-6.07V19.872h-14.089v12.364h14.089Zm29.641-9.725v15.135h-4.696v-18.61h-10.99v18.61h-4.697v-23.32h4.697v2.245h.097c1.596-1.936 3.776-2.905 6.778-2.905 5.664 0 8.811 3.08 8.811 8.845Z"/></g></g><defs><clipPath id="a"><path fill="#fff" d="M0 0h230.312v41.25H0z"/></clipPath><clipPath id="b"><path fill="#fff" d="M0 0h230.312v41.25H0z"/></clipPath></defs></svg>