<svg xmlns="http://www.w3.org/2000/svg" width="220" height="42" fill="none"><g clip-path="url(#a)"><g fill="#fff" clip-path="url(#b)"><path d="M2.367 1.64h41.974c2.382 0 4.355.425 5.92 1.273 1.565.814 2.737 1.873 3.52 3.177.817 1.303 1.226 2.671 1.226 4.107 0 1.433-.409 2.836-1.225 4.204-.818 1.337-2.063 2.428-3.735 3.276-1.634.847-3.697 1.27-6.186 1.27h-.053v.05h.053c2.88 0 5.261.472 7.147 1.418 1.884.945 3.288 2.15 4.212 3.617.925 1.467 1.388 3.015 1.388 4.645a8.238 8.238 0 0 1-.8 3.52c-.498 1.14-1.263 2.182-2.294 3.128-1.032.912-2.31 1.646-3.84 2.2-1.528.522-3.307.782-5.333.782H2.367V1.64Zm21.014 19.263v4.352h7.627c.96 0 1.671-.23 2.133-.684.497-.458.746-.979.746-1.566 0-.293-.053-.554-.16-.782a1.888 1.888 0 0 0-.479-.684 1.44 1.44 0 0 0-.748-.489c-.283-.13-.622-.195-1.012-.195h-8.054l-.053.048Zm.053-6.892c-.035 0-.053.015-.053.048v4.352h7.359c.641 0 1.174-.099 1.6-.294.428-.229.748-.506.961-.832.213-.358.32-.733.32-1.124 0-.554-.213-1.044-.64-1.467-.391-.457-.977-.684-1.76-.684h-7.787Zm79.575-.051H79.756v2.787h22.454v6.894H79.756v2.836h23.572v11.83H58.156V1.64h44.853v12.32Zm47.185 0h-23.253v2.787h22.452v6.894h-22.452v2.836h23.573v11.83H105.34V1.64h44.854v12.32Zm66.599-12.32v36.668h-20.532V17.97c0-.033-.019-.05-.053-.05h-.054v.05l-5.226 20.336h-13.601a1461.5 1461.5 0 0 1-2.614-10.12 1027.94 1027.94 0 0 0-2.613-10.07c0-.033-.018-.05-.053-.05h-.053v20.241h-19.467V1.64h28.427c.533 2.02 1.048 4.04 1.547 6.062.498 1.988.995 3.992 1.493 6.014.533 2.02 1.049 4.04 1.547 6.062v.098h.053c.035-.033.054-.066.054-.098l4.266-18.138h26.879Z"/></g></g><defs><clipPath id="a"><path fill="#fff" d="M0 0h220v41.25H0z"/></clipPath><clipPath id="b"><path fill="#fff" d="M0 0h220v41.25H0z"/></clipPath></defs></svg>