<svg xmlns="http://www.w3.org/2000/svg" width="134" height="24" fill="none"><g clip-path="url(#a)"><g fill="#000" clip-path="url(#b)"><path d="M13.444 11.622H1.707V.955c6.482 0 11.737 4.776 11.737 10.667Zm11.737 0V.955c-6.482 0-11.737 4.776-11.737 10.667h11.737ZM13.444 22.288H1.707V11.622c6.482 0 11.737 4.775 11.737 10.666Zm0 0h11.737V11.622c-6.482 0-11.737 4.775-11.737 10.666Zm29.549 0c-2.254 0-4.226-.716-5.803-2.176-1.606-1.433-2.62-4.019-2.62-7.32 0-5.838 3.775-9.192 8.423-9.192 4.591 0 8.338 3.431 8.338 9.268 0 3.302-.986 5.862-2.564 7.296-1.605 1.433-3.549 2.124-5.774 2.124Zm5.38-3.123V6.775H37.528v12.39h10.845Zm13.218 2.739h-2.845l-6-13.568h2.902l4.084 10.445h.958l4.056-10.445h2.845l-6 13.568Zm17.704-4.326h2.789c0 2.483-2.591 4.71-6.79 4.71-4.14 0-6.985-2.841-6.985-7.168 0-4.326 2.874-7.168 6.846-7.168 3.97 0 6.76 2.765 6.76 7.168v.743h-10.79v3.379h8.17v-1.664Zm-8.14-3.661h8v-2.97h-8v2.97Zm16.175 7.987h-2.732V8.336h2.62v1.46h.056c.592-1.05 1.83-1.69 3.07-1.69 1.156 0 3.24.538 3.24 2.97H87.33v10.828Zm9.725-4.249V11.28h-2.817V8.336h2.873V5.008h2.62v3.328h2.986v2.944H99.76v7.45h2.957v3.174h-1.239c-3.24 0-4.423-1.382-4.423-4.249Zm14.157 4.633c-3.971 0-6.845-2.662-6.845-7.168 0-4.428 2.987-7.168 6.845-7.168 3.803 0 6.761 2.74 6.761 7.168 0 4.506-2.817 7.168-6.761 7.168Zm4.057-3.532v-7.194h-8.197v7.194h8.197Zm17.246-5.658v8.806h-2.732V11.076h-6.394v10.828h-2.733V8.336h2.733v1.306h.056c.929-1.126 2.197-1.69 3.944-1.69 3.295 0 5.126 1.792 5.126 5.146Z" style="fill:#000;fill-opacity:1"/></g></g><defs><clipPath id="a"><path fill="#fff" d="M0 0h134v24H0z" style="fill:#fff;fill-opacity:1"/></clipPath><clipPath id="b"><path fill="#fff" d="M0 0h134v24H0z" style="fill:#fff;fill-opacity:1"/></clipPath></defs></svg>