<svg xmlns="http://www.w3.org/2000/svg" width="130" height="18" fill="none"><g clip-path="url(#a)"><g clip-path="url(#b)"><path fill="#000" d="M.492 17.633 6.217 0h4.451l5.725 17.633h-3.127L8.071 1.812h.681L3.62 17.633H.492Zm3.191-3.821v-2.755h9.533v2.755H3.683Zm29.832 3.821V9.6c0-.906-.232-1.612-.694-2.118-.462-.515-1.089-.772-1.879-.772-.487 0-.925.11-1.31.331-.388.212-.695.53-.922.955-.227.416-.34.914-.34 1.494l-1.349-.772c-.009-.914.201-1.718.63-2.412a4.556 4.556 0 0 1 1.765-1.641c.74-.392 1.564-.588 2.472-.588 1.505 0 2.656.441 3.455 1.323.807.873 1.211 2.024 1.211 3.453v8.78h-3.039Zm-16.38 0V4.408h2.685V8.51h.38v9.123h-3.065Zm8.208 0V9.637c0-.923-.23-1.641-.693-2.155-.462-.515-1.093-.772-1.892-.772-.773 0-1.395.257-1.866.772-.462.514-.693 1.183-.693 2.008l-1.362-.882c0-.857.218-1.628.656-2.314a4.6 4.6 0 0 1 1.765-1.616c.748-.4 1.584-.6 2.51-.6 1.016 0 1.865.212 2.546.636.69.417 1.202.988 1.54 1.715.343.718.516 1.53.516 2.436v8.768h-3.027ZM43.588 18c-1.682 0-3.048-.367-4.099-1.102-1.05-.735-1.689-1.767-1.916-3.098l3.102-.465a2.543 2.543 0 0 0 1.06 1.543c.545.375 1.235.563 2.067.563.731 0 1.294-.139 1.69-.416.403-.286.605-.674.605-1.164 0-.302-.076-.543-.227-.722-.143-.188-.463-.368-.958-.539-.496-.171-1.257-.388-2.283-.649-1.143-.294-2.05-.608-2.724-.943-.672-.343-1.155-.747-1.45-1.212-.294-.465-.44-1.029-.44-1.69 0-.824.222-1.543.667-2.155.446-.612 1.068-1.082 1.867-1.408.798-.335 1.74-.502 2.824-.502 1.06 0 1.997.159 2.812.477.824.319 1.488.772 1.992 1.36.505.587.816 1.277.934 2.069l-3.102.539a1.888 1.888 0 0 0-.795-1.335c-.445-.327-1.042-.51-1.79-.551-.715-.041-1.29.065-1.728.318-.437.245-.656.592-.656 1.041 0 .253.09.47.265.649.177.18.53.359 1.06.539.537.18 1.336.4 2.395.661 1.085.27 1.951.58 2.598.931.655.343 1.126.755 1.412 1.236.294.482.442 1.066.442 1.752 0 1.33-.5 2.375-1.5 3.134-.993.759-2.368 1.139-4.124 1.139Zm14.854-.367c-.899.163-1.782.232-2.648.208-.857-.017-1.626-.168-2.307-.453a3.163 3.163 0 0 1-1.55-1.384 3.857 3.857 0 0 1-.493-1.751 71.606 71.606 0 0 1-.025-2.02V.735h3.026v11.326c0 .531.004.996.012 1.396.017.4.106.727.265.98.303.49.786.763 1.451.82.664.057 1.42.025 2.27-.098v2.474Zm-9.495-10.91V4.408h9.495v2.314l-9.495.001ZM65.36 18c-1.378 0-2.589-.29-3.63-.869a6.286 6.286 0 0 1-2.448-2.413c-.58-1.028-.87-2.212-.87-3.551 0-1.445.286-2.698.858-3.759a6.16 6.16 0 0 1 2.383-2.486c1.017-.587 2.194-.881 3.531-.881 1.412 0 2.61.322 3.593.967.992.637 1.728 1.539 2.207 2.706.48 1.168.66 2.543.542 4.127h-3.013v-1.078c-.009-1.436-.269-2.485-.782-3.147-.513-.661-1.32-.992-2.42-.992-1.245 0-2.17.376-2.775 1.127-.606.743-.908 1.833-.908 3.269 0 1.339.302 2.376.908 3.111.605.734 1.488 1.102 2.648 1.102.748 0 1.391-.16 1.93-.478a3.216 3.216 0 0 0 1.26-1.408l3.001.882a5.955 5.955 0 0 1-2.42 2.779c-1.086.661-2.283.992-3.595.992Zm-4.69-6.159V9.612h9.368v2.229h-9.369Zm12.157 5.792V4.408h2.686v3.221l-.328-.417c.161-.429.387-.833.668-1.2a3.707 3.707 0 0 1 1.021-.906 4.28 4.28 0 0 1 1.11-.514 5.127 5.127 0 0 1 1.261-.233 5.328 5.328 0 0 1 1.25.049v2.755c-.405-.114-.872-.151-1.4-.11a3.282 3.282 0 0 0-1.414.429 3.15 3.15 0 0 0-1.034.845 3.54 3.54 0 0 0-.58 1.175 5.02 5.02 0 0 0-.189 1.408v6.723h-3.05ZM86.6 18c-1.252 0-2.345-.306-3.278-.918-.933-.613-1.656-1.445-2.169-2.498-.513-1.053-.769-2.241-.769-3.564 0-1.338.256-2.53.77-3.575.52-1.053 1.256-1.882 2.206-2.486.95-.612 2.067-.918 3.354-.918 1.294 0 2.38.306 3.253.918.883.604 1.551 1.433 2.005 2.486.454 1.053.681 2.245.681 3.575 0 1.315-.227 2.502-.68 3.564-.455 1.053-1.132 1.885-2.03 2.498-.9.612-2.015.918-3.343.918Zm.467-2.645c.815 0 1.471-.18 1.967-.539.504-.367.87-.877 1.097-1.53.235-.653.353-1.408.353-2.266 0-.865-.118-1.62-.353-2.265-.227-.653-.584-1.159-1.072-1.518-.487-.368-1.118-.551-1.89-.551-.817 0-1.489.196-2.019.587-.529.384-.92.907-1.172 1.568-.253.653-.379 1.379-.379 2.179 0 .808.122 1.543.366 2.204.252.654.634 1.172 1.147 1.556.513.383 1.165.575 1.955.575Zm3.417 2.278V8.351h-.378V0h3.064v17.633h-2.686Zm36.463 0V9.6c0-.906-.231-1.612-.694-2.118-.462-.515-1.089-.772-1.879-.772-.487 0-.924.11-1.311.331-.387.212-.694.53-.921.955-.227.416-.34.914-.34 1.494l-1.349-.772c-.009-.914.202-1.718.63-2.412a4.552 4.552 0 0 1 1.766-1.641c.739-.392 1.563-.588 2.471-.588 1.505 0 2.657.441 3.455 1.323.807.873 1.211 2.024 1.211 3.453v8.78h-3.039Zm-16.38 0V4.408h2.686V8.51h.378v9.123h-3.064Zm8.209 0V9.637c0-.923-.231-1.641-.694-2.155-.462-.515-1.093-.772-1.891-.772-.774 0-1.396.257-1.867.772-.462.514-.693 1.183-.693 2.008l-1.362-.882c0-.857.219-1.628.656-2.314a4.6 4.6 0 0 1 1.765-1.616c.748-.4 1.585-.6 2.509-.6 1.018 0 1.867.212 2.548.636a3.854 3.854 0 0 1 1.538 1.715c.345.718.517 1.53.517 2.436v8.768h-3.026ZM100.24 18c-.984 0-1.816-.18-2.497-.539-.68-.367-1.198-.853-1.55-1.457a3.952 3.952 0 0 1-.518-1.996c0-.637.11-1.208.328-1.714a3.392 3.392 0 0 1 1.01-1.323c.453-.375 1.041-.681 1.764-.918a17.308 17.308 0 0 1 1.917-.465 46.214 46.214 0 0 1 2.395-.38c.866-.122 1.77-.253 2.712-.392l-1.085.6c.009-.914-.202-1.587-.63-2.02-.429-.433-1.152-.649-2.169-.649-.614 0-1.207.139-1.778.416-.572.278-.97.755-1.198 1.433l-2.774-.845a5.01 5.01 0 0 1 1.916-2.694c.95-.677 2.228-1.016 3.834-1.016 1.21 0 2.274.192 3.19.575.925.384 1.61 1.012 2.056 1.886.243.465.39.943.441 1.433.05.481.075 1.008.075 1.579v8.119h-2.66v-2.866l.441.466c-.613.955-1.332 1.657-2.156 2.106-.816.441-1.837.661-3.064.661Zm.605-2.351c.689 0 1.278-.118 1.765-.355.488-.237.875-.527 1.16-.869.295-.343.492-.666.593-.968.16-.375.248-.804.265-1.286.025-.489.038-.885.038-1.187l.933.269c-.916.139-1.702.261-2.358.367-.656.106-1.219.208-1.69.306-.471.09-.887.192-1.248.307a3.888 3.888 0 0 0-.895.428 1.941 1.941 0 0 0-.568.563 1.44 1.44 0 0 0-.189.747c0 .327.084.617.252.87.168.245.412.441.732.588.327.146.731.22 1.21.22Z" style="fill:#000;fill-opacity:1"/></g></g><defs><clipPath id="a"><path fill="#fff" d="M0 0h130v18H0z" style="fill:#fff;fill-opacity:1"/></clipPath><clipPath id="b"><path fill="#fff" d="M0 0h130v18H0z" style="fill:#fff;fill-opacity:1"/></clipPath></defs></svg>