<svg xmlns="http://www.w3.org/2000/svg" width="24" height="24" fill="none"><g clip-path="url(#a)"><path fill="#5417D7" fill-rule="evenodd" d="M6 0a6 6 0 0 1 6 6V0h6a6 6 0 0 1 0 12 6 6 0 0 1 4.265 10.22l-.022.023-.02.02A5.98 5.98 0 0 1 18 24a5.98 5.98 0 0 1-4.282-1.797A5.98 5.98 0 0 1 12 18a6 6 0 0 1-12 0v-6h6A6 6 0 0 1 6 0Zm4.8 6A4.8 4.8 0 0 1 6 10.8V1.2A4.8 4.8 0 0 1 10.8 6Zm12 12a4.8 4.8 0 1 0-9.6 0h9.6ZM1.2 13.2V18a4.8 4.8 0 1 0 9.6 0v-4.8H1.2Zm12-2.4V1.2H18a4.8 4.8 0 1 1 0 9.6h-4.8Z" clip-rule="evenodd"/></g><defs><clipPath id="a"><path fill="#fff" d="M0 0h24v24H0z"/></clipPath></defs></svg>