<svg xmlns="http://www.w3.org/2000/svg" width="24" height="24" fill="none"><mask id="a" width="24" height="24" x="0" y="0" maskUnits="userSpaceOnUse" style="mask-type:luminance"><path fill="#fff" d="M24 0H0v24h24V0Z"/></mask><g mask="url(#a)"><path fill="#00DDE3" d="M14.37 8.43 8.526 9.702l-7.308 1.512A1.554 1.554 0 0 0 0 12.732v9.756A1.5 1.5 0 0 0 1.524 24H16.2V9.942a1.53 1.53 0 0 0-1.83-1.512Z"/><path fill="#00D924" d="M22.11.031 9.018 2.791a1.542 1.542 0 0 0-1.218 1.5v19.71h14.676A1.69 1.69 0 0 0 24 22.381V1.531a1.576 1.576 0 0 0-1.89-1.5Z"/><path fill="#00BD01" d="M14.37 8.43a1.526 1.526 0 0 1 1.83 1.513V24H7.8V9.853l.726-.15L14.37 8.43Z"/></g></svg>