<svg xmlns="http://www.w3.org/2000/svg" width="128" height="24" fill="none"><g clip-path="url(#a)"><g fill="#000" clip-path="url(#b)"><path d="M1.379.955h24.42c1.387 0 2.535.247 3.446.74.91.474 1.592 1.09 2.048 1.85.475.757.713 1.553.713 2.388 0 .834-.238 1.65-.713 2.446-.476.778-1.2 1.413-2.173 1.906-.951.493-2.151.74-3.6.74h-.03v.028h.03c1.677 0 3.062.275 4.159.825 1.096.55 1.913 1.251 2.45 2.105.539.853.808 1.754.808 2.702 0 .701-.155 1.384-.465 2.048-.29.664-.735 1.27-1.335 1.82-.6.531-1.344.958-2.234 1.28-.89.304-1.924.455-3.103.455H1.379V.955Zm12.226 11.207v2.533h4.438c.558 0 .972-.134 1.24-.399.29-.266.435-.569.435-.91 0-.17-.031-.323-.093-.456a1.099 1.099 0 0 0-.28-.398.838.838 0 0 0-.434-.284 1.4 1.4 0 0 0-.59-.114h-4.685l-.031.028Zm.03-4.01c-.02 0-.03.01-.03.028v2.533h4.282c.373 0 .683-.058.93-.172.25-.133.436-.294.56-.484.124-.208.186-.426.186-.654 0-.322-.124-.607-.372-.853-.228-.266-.57-.398-1.024-.398h-4.531Zm46.297-.029H46.403v1.621h13.064v4.011H46.403v1.65h13.715v6.883H33.836V.955h26.096v7.168Zm27.454 0H73.858v1.621H86.92v4.011H73.858v1.65h13.713v6.883H61.29V.955h26.097v7.168ZM126.133.955v21.333h-11.946V10.456c0-.019-.011-.029-.031-.029h-.031v.03l-3.041 11.831h-7.913a829.431 829.431 0 0 1-1.521-5.888 600.816 600.816 0 0 0-1.52-5.859c0-.019-.011-.029-.031-.029h-.031v11.776H88.742V.955h16.539c.31 1.176.61 2.351.9 3.527.29 1.157.579 2.323.869 3.5.31 1.175.61 2.35.9 3.526v.057h.031c.02-.019.031-.038.031-.057L110.494.955h15.639Z" style="fill:#000;fill-opacity:1"/></g></g><defs><clipPath id="a"><path fill="#fff" d="M0 0h128v24H0z" style="fill:#fff;fill-opacity:1"/></clipPath><clipPath id="b"><path fill="#fff" d="M0 0h128v24H0z" style="fill:#fff;fill-opacity:1"/></clipPath></defs></svg>