<svg xmlns="http://www.w3.org/2000/svg" width="24" height="24" fill="none"><path fill="#243A5A" d="M0 12C0 6.343 0 3.515 1.757 1.757 3.515 0 6.343 0 12 0s8.485 0 10.243 1.757C24 3.515 24 6.343 24 12s0 8.485-1.757 10.243C20.485 24 17.657 24 12 24s-8.485 0-10.243-1.757C0 20.485 0 17.657 0 12Z"/><path fill="#2DF8BB" d="M14.4 15.6c.331 0 .606.27.54.596a3 3 0 0 1-5.88 0c-.066-.325.209-.596.54-.596h4.8Zm1.261-4.934c-.32.085-.516.42-.353.71a2.399 2.399 0 1 0 .375-2.853c-.231.237-.129.611.158.777l.305.176A.6.6 0 0 1 16 10.575l-.34.09Zm-7.322 0c.32.085.516.42.354.71a2.4 2.4 0 1 1-.376-2.853c.232.237.129.611-.158.777l-.305.176A.6.6 0 0 0 8 10.575l.34.09Z"/></svg>