<svg xmlns="http://www.w3.org/2000/svg" width="27" height="24" fill="none"><g fill="#3064E8" clip-path="url(#a)"><path fill-rule="evenodd" d="M16.875 20.572a6.67 6.67 0 0 0 2.583-.522 6.744 6.744 0 0 0 2.19-1.487 6.867 6.867 0 0 0 1.463-2.224 6.94 6.94 0 0 0 .514-2.625 10.37 10.37 0 0 0-2.965-7.273A10.046 10.046 0 0 0 13.5 3.43c-2.685 0-5.26 1.083-7.16 3.012a10.369 10.369 0 0 0-2.965 7.273c0 .9.175 1.793.514 2.624a6.862 6.862 0 0 0 1.463 2.225 6.744 6.744 0 0 0 2.19 1.487 6.658 6.658 0 0 0 2.583.522h6.75ZM13.5 6.172c-1.97 0-3.858.794-5.25 2.209a7.604 7.604 0 0 0-2.175 5.333c0 .54.105 1.076.308 1.575.204.5.502.953.878 1.335s.823.685 1.314.892a3.995 3.995 0 0 0 1.55.313h6.75c.532 0 1.058-.107 1.55-.314.491-.206.938-.51 1.314-.891a4.13 4.13 0 0 0 1.186-2.91 7.6 7.6 0 0 0-2.175-5.333 7.367 7.367 0 0 0-5.25-2.21Z" clip-rule="evenodd"/><path fill-rule="evenodd" d="M8.775 24a7.672 7.672 0 0 1-3.358-.783 8.827 8.827 0 0 1-2.847-2.23 10.555 10.555 0 0 1-1.902-3.336A11.84 11.84 0 0 1 0 13.714c0-3.637 1.422-7.125 3.954-9.697A13.394 13.394 0 0 1 13.5 0c3.58 0 7.014 1.445 9.546 4.017A13.825 13.825 0 0 1 27 13.714c0 1.351-.227 2.689-.668 3.937a10.555 10.555 0 0 1-1.902 3.336 8.827 8.827 0 0 1-2.847 2.23 7.673 7.673 0 0 1-3.358.783h-9.45ZM5.863 5.956A10.715 10.715 0 0 1 13.5 2.743a10.72 10.72 0 0 1 7.637 3.213 11.06 11.06 0 0 1 3.163 7.758 9.035 9.035 0 0 1-.51 3.01 7.8 7.8 0 0 1-1.4 2.467 6.123 6.123 0 0 1-1.971 1.551 5.006 5.006 0 0 1-2.194.515h-9.45c-.74 0-1.484-.17-2.194-.515a6.123 6.123 0 0 1-1.97-1.551 7.802 7.802 0 0 1-1.402-2.467 9.058 9.058 0 0 1-.509-3.01c0-2.91 1.138-5.7 3.163-7.758Z" clip-rule="evenodd"/><path d="M16.875 17.143h-3.378a3.327 3.327 0 0 1-1.872-.578 3.417 3.417 0 0 1-1.432-2.165 3.479 3.479 0 0 1-.003-1.354c.13-.665.452-1.276.924-1.756a3.36 3.36 0 0 1 2.386-1.004c.441 0 .88.088 1.291.261.617.26 1.144.699 1.515 1.263s.569 1.226.569 1.905h-2.7a.678.678 0 0 0-.417-.634.665.665 0 0 0-.735.149.689.689 0 0 0-.147.747.683.683 0 0 0 .249.308.667.667 0 0 0 .375.115h3.375a.667.667 0 0 0 .477-.2.686.686 0 0 0 .198-.485 4.147 4.147 0 0 0-1.186-2.91 4.018 4.018 0 0 0-3.212-1.19 3.99 3.99 0 0 0-1.593.489 4.052 4.052 0 0 0-.923.701 4.114 4.114 0 0 0-1.039 1.81 4.169 4.169 0 0 0 .161 2.674 4.1 4.1 0 0 0 1.492 1.847l.011.007h-1.136a3.33 3.33 0 0 1-1.292-.26 3.373 3.373 0 0 1-1.094-.744 3.433 3.433 0 0 1-.732-1.112 3.475 3.475 0 0 1-.257-1.312c0-1.82.711-3.563 1.977-4.85A6.697 6.697 0 0 1 13.5 6.858c1.79 0 3.507.723 4.773 2.009a6.913 6.913 0 0 1 1.977 4.849 3.47 3.47 0 0 1-.988 2.424c-.314.318-.686.57-1.096.743a3.331 3.331 0 0 1-1.291.261Z"/></g><defs><clipPath id="a"><path fill="#fff" d="M0 0h27v24H0z"/></clipPath></defs></svg>