<svg xmlns="http://www.w3.org/2000/svg" width="24" height="24" fill="none"><path fill="#51A3EE" d="M12 16.8a4.8 4.8 0 1 1 0-9.6 4.8 4.8 0 0 1 0 9.6Z"/><path fill="#51A3EE" d="M2.701 13.64c-1.391.245-2.344 1.589-1.81 2.897a12 12 0 0 0 22.37-.39c.488-1.326-.512-2.636-1.91-2.832-1.399-.197-2.655.821-3.346 2.053a6.885 6.885 0 0 1-11.889.207c-.733-1.207-2.024-2.18-3.415-1.935Z"/><path fill="#0E4F8B" d="M23.907 13.5c.061-.492.093-.992.093-1.5 0-6.627-5.373-12-12-12S0 5.373 0 12c0 .652.052 1.291.152 1.915a3.745 3.745 0 0 1 2.34-1.457c1.006-.177 1.92.066 2.692.522a6.885 6.885 0 1 1 13.661-.238c.757-.483 1.662-.758 2.673-.616a3.75 3.75 0 0 1 2.39 1.374Z"/></svg>