<svg xmlns="http://www.w3.org/2000/svg" width="149" height="18" fill="none"><g clip-path="url(#a)"><g clip-path="url(#b)"><g clip-path="url(#c)"><path fill="#000" d="M9.58 17.951c-1.315 0-2.532-.22-3.652-.661a9.39 9.39 0 0 1-2.944-1.886 8.945 8.945 0 0 1-1.948-2.865c-.454-1.094-.68-2.278-.68-3.551 0-1.29.226-2.474.68-3.551a8.671 8.671 0 0 1 1.948-2.841A9.465 9.465 0 0 1 5.904.71C7.024.253 8.234.024 9.531.024c1.364 0 2.588.221 3.675.662a8.99 8.99 0 0 1 2.872 1.787l-2.92 2.939a4.258 4.258 0 0 0-1.51-1.077c-.6-.262-1.306-.392-2.117-.392-.698 0-1.339.114-1.923.343a4.057 4.057 0 0 0-1.485 1.028 4.83 4.83 0 0 0-.998 1.592c-.227.621-.34 1.314-.34 2.082 0 .767.113 1.461.34 2.081.244.621.576 1.16.998 1.617a4.5 4.5 0 0 0 1.485 1.028 5.222 5.222 0 0 0 1.922.343c.813 0 1.527-.122 2.143-.367a4.55 4.55 0 0 0 1.582-1.102l2.92 2.939a9.353 9.353 0 0 1-2.872 1.787c-1.055.425-2.296.637-3.724.637Zm6.786-.269L23.058.318h4.212l6.62 17.364h-4.553L24.35 3.086h1.581l-5.11 14.596h-4.454Zm19.139 0V.318h4.356v17.364h-4.356Zm3.456 0V13.91h8.324v3.772H38.96Zm10.352 0V.318h4.357v17.364h-4.357Zm7.416 0V.318h4.358v17.364h-4.358Zm3.456-6.49V7.494h8.543v3.698h-8.542Zm0-7.176V.318h8.933v3.698h-8.932ZM79.6 18c-1.33 0-2.554-.229-3.674-.686a9.194 9.194 0 0 1-2.945-1.91 8.959 8.959 0 0 1-1.947-2.865 9.076 9.076 0 0 1-.707-3.576c0-1.273.228-2.449.683-3.526a8.942 8.942 0 0 1 1.947-2.866 8.597 8.597 0 0 1 2.92-1.885C76.998.229 78.222 0 79.552 0c1.33 0 2.555.229 3.675.686a8.593 8.593 0 0 1 2.92 1.885 8.628 8.628 0 0 1 1.923 2.866c.472 1.094.707 2.277.707 3.551 0 1.273-.236 2.457-.707 3.551a8.895 8.895 0 0 1-1.922 2.89 8.902 8.902 0 0 1-2.92 1.91c-1.103.441-2.313.661-3.627.661Zm-.047-3.918c.972 0 1.817-.213 2.53-.637a4.285 4.285 0 0 0 1.656-1.788c.388-.767.584-1.665.584-2.694 0-.751-.113-1.436-.341-2.057a4.246 4.246 0 0 0-.95-1.592 4.284 4.284 0 0 0-1.508-1.053c-.585-.245-1.242-.367-1.972-.367-.974 0-1.818.212-2.532.637a4.14 4.14 0 0 0-1.654 1.763c-.39.767-.585 1.657-.585 2.669 0 .784.106 1.494.317 2.131.228.62.552 1.159.974 1.616.421.441.924.784 1.508 1.029.585.228 1.243.343 1.972.343Zm14.859-3.429V7.518h3.285c.715 0 1.257-.171 1.63-.514.39-.359.585-.841.585-1.445 0-.588-.195-1.061-.585-1.42-.373-.376-.915-.563-1.63-.563h-3.285V.318h3.893c1.168 0 2.19.221 3.067.662.892.44 1.59 1.045 2.093 1.812.503.767.754 1.665.754 2.694 0 1.028-.259 1.934-.778 2.718-.504.767-1.209 1.372-2.118 1.812-.909.425-1.97.637-3.188.637h-3.724Zm-3.457 7.029V.318h4.356v17.364h-4.356Zm9.346 0-5.014-7.445 3.92-.955 6.132 8.4h-5.038Zm6.46 0V.318h3.042l1.314 3.551v13.813h-4.356Zm11.901 0L108.586 4.8l1.217-4.482 10.1 12.882-1.241 4.482Zm0 0-1.12-3.649V.318h4.357v17.364h-3.237Zm6.305 0V.318h4.357v17.364h-4.357Zm6.15 0L137.81.318h4.211l6.62 17.364h-4.552L139.1 3.086h1.582l-5.111 14.596h-4.454Z" style="fill:#000;fill-opacity:1"/></g></g></g><defs><clipPath id="a"><path fill="#fff" d="M0 0h149v18H0z" style="fill:#fff;fill-opacity:1"/></clipPath><clipPath id="b"><path fill="#fff" d="M0 0h149v18H0z" style="fill:#fff;fill-opacity:1"/></clipPath><clipPath id="c"><path fill="#fff" d="M0 0h149v18H0z" style="fill:#fff;fill-opacity:1"/></clipPath></defs></svg>