<svg xmlns="http://www.w3.org/2000/svg" width="96" height="22" fill="none"><g clip-path="url(#a)"><g clip-path="url(#b)"><path fill="#000" d="M7.234 21.631 1.876 8.554C1.594 7.856 1.11 7.395.424 7.169L0 7.046v-.308h7.839v.308l-.545.123c-.787.205-1.029.739-.726 1.6l3.178 8.585 2.966-8.523c.161-.41.202-.749.121-1.016-.081-.266-.323-.461-.726-.584l-.757-.185v-.308h4.388v.308l-.877.215c-.384.103-.686.257-.908.462-.202.205-.374.513-.515.923L8.989 21.631H7.234ZM23.605 6.277c1.312 0 2.432.277 3.36.831a5.294 5.294 0 0 1 2.118 2.215c.505.923.757 1.98.757 3.169 0 .226-.01.462-.03.708a2.791 2.791 0 0 1-.121.615H20.67c.019 2.216.403 3.816 1.149 4.8.767.965 1.897 1.447 3.39 1.447 1.009 0 1.826-.164 2.452-.493.626-.328 1.211-.81 1.755-1.446l.303.277c-.625 1.128-1.463 2.01-2.512 2.646-1.029.636-2.27.954-3.723.954-1.432 0-2.704-.308-3.814-.923-1.109-.636-1.977-1.539-2.602-2.708-.626-1.169-.939-2.564-.939-4.184 0-1.682.363-3.108 1.09-4.277.726-1.19 1.654-2.093 2.784-2.708 1.151-.615 2.351-.923 3.602-.923Zm-.091.615c-.585 0-1.089.185-1.513.554-.404.349-.726.985-.968 1.908-.222.902-.344 2.185-.363 3.846h5.175c.202-2.236.121-3.846-.242-4.831-.363-.984-1.06-1.477-2.089-1.477Zm8.137 14.646v-.307l.424-.123c.706-.206 1.059-.708 1.059-1.508V9.969c0-.451-.07-.779-.212-.984-.141-.226-.413-.38-.817-.462l-.454-.123v-.308l5.176-1.784.302.307.243 1.846a9.548 9.548 0 0 1 2.391-1.569c.887-.41 1.765-.615 2.633-.615 1.332 0 2.35.369 3.057 1.108.726.738 1.089 1.866 1.089 3.384v8.862c0 .8.384 1.302 1.151 1.507l.272.093v.307h-7.143v-.307l.393-.123c.707-.226 1.06-.729 1.06-1.508V9.785c0-1.313-.646-1.97-1.937-1.97-.888 0-1.857.452-2.906 1.354v10.462c0 .8.353 1.302 1.059 1.507l.273.093v.307h-7.113ZM53.084 4.677c-.686 0-1.271-.215-1.756-.646-.464-.452-.696-1.016-.696-1.693 0-.697.232-1.261.696-1.692C51.813.215 52.398 0 53.084 0c.686 0 1.261.215 1.725.646.464.431.696.995.696 1.692 0 .677-.232 1.241-.696 1.693-.464.431-1.039.646-1.725.646Zm-3.572 16.861v-.307l.424-.123c.404-.123.676-.308.817-.554.162-.246.242-.575.242-.985V9.938c0-.43-.08-.748-.242-.953-.141-.226-.413-.38-.817-.462l-.424-.092v-.308l5.539-1.815.303.307-.091 4.37V19.6c0 .41.071.738.212.985.161.246.434.43.817.554l.303.092v.307h-7.083ZM65.743 22c-1.372 0-2.623-.297-3.752-.892-1.11-.616-1.998-1.498-2.664-2.646-.646-1.17-.969-2.595-.969-4.277 0-1.662.354-3.077 1.06-4.246.726-1.19 1.685-2.093 2.875-2.708 1.211-.636 2.532-.954 3.965-.954 1.17 0 2.159.195 2.966.585.807.389 1.423.902 1.846 1.538.424.615.636 1.261.636 1.939 0 .574-.171 1.025-.514 1.353-.343.308-.787.462-1.332.462-.585 0-1.059-.215-1.423-.646-.363-.431-.575-.995-.635-1.693a6.73 6.73 0 0 1 .03-1.138c.04-.327.04-.658 0-.985-.081-.348-.212-.574-.394-.677-.161-.123-.393-.184-.696-.184-1.231 0-2.189.543-2.875 1.63-.666 1.088-.999 2.821-.999 5.201 0 2.071.374 3.661 1.12 4.769.767 1.087 1.937 1.631 3.511 1.631.948 0 1.715-.175 2.3-.524.585-.348 1.151-.871 1.695-1.569l.303.246c-.505 1.211-1.281 2.144-2.331 2.8-1.049.657-2.29.985-3.723.985ZM80.916 6.277c1.311 0 2.431.277 3.359.831a5.29 5.29 0 0 1 2.119 2.215c.504.923.757 1.98.757 3.169 0 .226-.01.462-.031.708a2.735 2.735 0 0 1-.121.615H77.98c.02 2.216.403 3.816 1.15 4.8.767.965 1.897 1.447 3.39 1.447 1.009 0 1.826-.164 2.451-.493.626-.328 1.211-.81 1.756-1.446l.303.277c-.626 1.128-1.463 2.01-2.512 2.646-1.03.636-2.271.954-3.723.954-1.433 0-2.704-.308-3.814-.923-1.11-.636-1.977-1.539-2.603-2.708-.626-1.169-.938-2.564-.938-4.184 0-1.682.363-3.108 1.089-4.277.727-1.19 1.655-2.093 2.785-2.708 1.15-.615 2.351-.923 3.602-.923Zm-.091.615c-.585 0-1.09.185-1.514.554-.403.349-.726.985-.968 1.908-.222.902-.343 2.185-.363 3.846h5.175c.202-2.236.122-3.846-.242-4.831-.363-.984-1.059-1.477-2.088-1.477ZM92.896 22a2.491 2.491 0 0 1-1.846-.769 2.54 2.54 0 0 1-.757-1.846c0-.718.253-1.344.757-1.877.505-.534 1.12-.8 1.846-.8a2.44 2.44 0 0 1 1.846.8 2.64 2.64 0 0 1 .757 1.877c0 .718-.252 1.333-.757 1.846a2.488 2.488 0 0 1-1.846.769Z" style="fill:#000;fill-opacity:1"/></g></g><defs><clipPath id="a"><path fill="#fff" d="M0 0h96v22H0z" style="fill:#fff;fill-opacity:1"/></clipPath><clipPath id="b"><path fill="#fff" d="M0 0h96v22H0z" style="fill:#fff;fill-opacity:1"/></clipPath></defs></svg>