<svg xmlns="http://www.w3.org/2000/svg" width="149" height="24" fill="none"><g clip-path="url(#a)"><g fill="#000" clip-path="url(#b)"><path d="m5.457 20.15 5.128-5.827a1.42 1.42 0 0 0 .454-.908.596.596 0 0 0-.075-.31.66.66 0 0 0-.23-.24 1.423 1.423 0 0 0-.81-.21 4.046 4.046 0 0 0-.38.03L1.312 13.69V9.552l8.232 1.018c.125.017.253.026.38.03.29.012.575-.065.81-.217a.679.679 0 0 0 .229-.243.614.614 0 0 0 .076-.312 1.378 1.378 0 0 0-.438-.897l-5.159-5.91L9.6.955l3.097 6.91c.092.258.256.491.474.676a.836.836 0 0 0 .277.177.926.926 0 0 0 .662 0 .836.836 0 0 0 .277-.177 1.65 1.65 0 0 0 .47-.676L17.93.955l4.232 2.066-5.21 5.91a1.447 1.447 0 0 0-.454.923.603.603 0 0 0 .076.301.662.662 0 0 0 .22.235c.247.151.54.224.835.21.137.003.273-.007.407-.03l8.186-1.018v4.14l-8.186-1.008a2.341 2.341 0 0 0-.442-.03 1.466 1.466 0 0 0-.811.192.648.648 0 0 0-.218.23.59.59 0 0 0-.075.295c.035.354.197.688.459.952l5.188 5.826-4.215 2.14-3.088-6.904a1.714 1.714 0 0 0-.47-.676.85.85 0 0 0-.277-.176.914.914 0 0 0-.662 0 .84.84 0 0 0-.277.176 1.87 1.87 0 0 0-.488.676l-3.096 6.903-4.106-2.139Zm34.444-1.884c-4.435 0-6.596-1.502-6.596-4.608v-.076h4.014v.535c0 .94.617 1.145 2.667 1.145 1.712 0 1.993-.23 1.993-.865 0-.688-.393-.84-2.274-1.146l-2.134-.356c-2.778-.46-4.294-1.528-4.294-3.895 0-2.368 2.133-4.048 6.147-4.048 3.453 0 6.091 1.476 6.091 4.353v.357h-4.014v-.357c0-.84-.393-1.298-2.189-1.298-1.684 0-2.077.33-2.077.942 0 .61.252.789 1.937 1.094l2.582.484c2.976.509 4.211 1.73 4.211 3.819 0 2.393-2.162 3.92-6.064 3.92Zm12.07-.254H47.79V.955h4.182v6.237h.17c.757-1.196 2.301-2.24 4.546-2.24 3.65 0 5.165 2.215 5.165 4.94v8.12h-4.21v-7.358c0-1.782-.646-2.418-2.779-2.418-2.02 0-2.892.611-2.892 2.546v7.23ZM68.277 3.755H64.15l-.056-2.8h4.183v2.8Zm.084 14.257H64.15V5.206h4.21v12.806Zm6.303 4.276h-4.21V5.206h3.901V7.09h.14c.758-1.374 2.386-2.138 4.492-2.138 3.986 0 6.063 2.622 6.063 6.67 0 4.022-2.16 6.644-5.979 6.644-2.246 0-3.62-.84-4.267-1.935h-.14v5.957Zm0-9.648c0 1.73 1.095 2.368 3.088 2.368 2.442 0 3.087-1.07 3.087-3.386 0-2.342-.645-3.412-3.087-3.412-1.993 0-3.088.637-3.088 2.368v2.062Zm16.445 5.372h-3.902V.955h4.183v6.033h.168c.646-1.069 2.162-2.036 4.295-2.036 3.873 0 5.923 2.622 5.923 6.67 0 4.022-2.05 6.644-5.895 6.644-2.189 0-3.874-.764-4.631-2.138h-.141v1.884Zm.281-5.372c0 1.731 1.123 2.368 3.116 2.368 2.414 0 3.088-1.07 3.088-3.386 0-2.342-.646-3.412-3.088-3.412-1.993 0-3.116.637-3.116 2.368v2.062Zm16.307 5.626c-2.498 0-4.435-1.196-4.435-3.513 0-1.986 1.572-3.208 4.491-3.615l4.828-.662v-.407c0-1.502-.898-1.782-2.554-1.782-1.713 0-2.386.433-2.386 1.73v.28h-4.014v-.28c0-3.054 2.611-5.065 6.596-5.065 4.155 0 6.344 2.062 6.344 5.473v7.587h-3.902V16.28h-.168c-.758.942-2.19 1.986-4.8 1.986Zm-.421-3.818c0 .687.59.916 1.825.916 1.712 0 3.48-.407 3.48-2.393l-4.042.56c-.87.127-1.263.382-1.263.917Zm17.935 3.818c-4.435 0-6.597-1.502-6.597-4.608v-.076h4.014v.535c0 .94.618 1.145 2.667 1.145 1.713 0 1.993-.23 1.993-.865 0-.688-.393-.84-2.274-1.146l-2.133-.356c-2.779-.46-4.295-1.528-4.295-3.895 0-2.368 2.133-4.048 6.148-4.048 3.453 0 6.091 1.476 6.091 4.353v.357h-4.014v-.357c0-.84-.394-1.298-2.19-1.298-1.684 0-2.077.33-2.077.942 0 .61.253.789 1.937 1.094l2.582.484c2.976.509 4.211 1.73 4.211 3.819 0 2.393-2.161 3.92-6.063 3.92Zm14.538 0c-4.856 0-7.073-2.571-7.073-6.62 0-4.097 2.694-6.694 7.101-6.694 4.239 0 6.737 2.29 6.737 5.626 0 .713-.113 1.45-.197 1.884h-9.684c.085 1.782.871 2.495 3.172 2.495 1.684 0 2.414-.331 2.414-1.12v-.153h4.155v.254c0 2.724-2.583 4.328-6.625 4.328Zm-.112-10.183c-2.021 0-2.808.713-2.976 2.062h5.811c.084-1.324-.87-2.062-2.835-2.062Z" style="fill:#000;fill-opacity:1"/></g></g><defs><clipPath id="a"><path fill="#fff" d="M0 0h148v24H0z" style="fill:#fff;fill-opacity:1"/></clipPath><clipPath id="b"><path fill="#fff" d="M0 0h148v24H0z" style="fill:#fff;fill-opacity:1"/></clipPath></defs></svg>