<svg xmlns="http://www.w3.org/2000/svg" width="32" height="32" fill="none"><rect width="32" height="32" fill="#ED4609" rx="4"/><path fill="#fff" fill-rule="evenodd" d="M16.529 8.101c-.219.056-1.31.314-2.424.575-4.154.974-4.148.972-4.305 1.172a.733.733 0 0 0-.072.745c.082.152 3.617 2.655 3.913 2.77.18.07 1.56-.218 4.032-.842l.622-.157-.02-1.444c-.031-2.057-.127-2.497-.61-2.792-.266-.162-.572-.17-1.136-.027Zm2.474.539a.822.822 0 0 0-.205.337c-.043.172.025 3.208.073 3.257.01.01.408-.075.883-.19a157.16 157.16 0 0 1 2.02-.474c1.327-.3 1.503-.361 1.471-.506-.013-.058-.82-.66-1.793-1.338-1.493-1.04-1.81-1.233-2.03-1.233a.63.63 0 0 0-.419.147ZM8.458 11.196a.985.985 0 0 0-.355.304c-.129.197-.13.345-.04 4.116.057 2.423.123 4.005.173 4.157.112.343.366.506.935.6.452.075.55.064 1.372-.143.487-.122 1.194-.295 1.572-.382.378-.088.765-.189.86-.225l.174-.066-.051-.92c-.028-.505-.077-1.755-.108-2.777-.046-1.531-.077-1.89-.175-2.04-.185-.282-3.62-2.653-3.9-2.691a.987.987 0 0 0-.457.067Zm12.159 1.326c-.915.219-1.686.42-1.712.445-.026.027-.01 1.401.037 3.056.075 2.657.1 3.03.212 3.201.07.107.151.195.18.195.03 0 .15.085.27.189.12.104.591.44 1.05.748.457.307 1.186.809 1.62 1.113.656.46.837.554 1.07.554.203 0 .332-.05.46-.177.155-.156.179-.248.189-.742.006-.31.009-.61.006-.668-.003-.057-.025-.79-.05-1.628-.187-6.613-.151-6.275-.69-6.563-.384-.205-.81-.16-2.642.277Zm-4.124.97c-.796.194-1.584.39-1.752.435-.38.102-.844.493-1.055.887-.154.289-.16.362-.141 2.072.019 1.81.067 2.627.151 2.576a1.82 1.82 0 0 1 .337-.074 3.98 3.98 0 0 0 .509-.116c.121-.04.43-.118.687-.174l1.191-.26c1.052-.23 1.533-.558 1.855-1.265.15-.326.17-1.133.088-3.244l-.048-1.205-.188.007c-.103.003-.838.166-1.634.36Zm.723 5.883c-.199.053-.883.217-1.52.365-.636.148-1.364.324-1.616.39l-.459.12.05 1.665c.026.915.08 1.792.12 1.95.04.156.181.392.313.524.317.316.499.312 2.034-.046 4.238-.99 4.972-1.17 5.165-1.27.421-.218.571-.858.286-1.22-.082-.104-.66-.55-1.284-.992-.624-.441-1.362-.967-1.639-1.17-.567-.413-.85-.474-1.45-.316Zm-4.594 1.093c-4.09.964-4.125.974-4.125 1.264 0 .1.5.49 1.777 1.383 1.528 1.068 1.817 1.244 2.059 1.25a.783.783 0 0 0 .484-.143c.38-.28.395-.38.34-2.197-.028-.916-.07-1.662-.094-1.658-.024.004-.223.05-.441.1Z" clip-rule="evenodd"/></svg>