<svg xmlns="http://www.w3.org/2000/svg" width="128" height="22" fill="none"><g clip-path="url(#a)"><g clip-path="url(#b)"><g fill="#000" clip-path="url(#c)"><path d="M40.99 2.969v18.288h-2.2v-7.953h-9.84v7.953h-2.198V2.969h2.199v8.174h9.84V2.969h2.2Zm8.604 4.157c3.134 0 5.69 1.496 5.69 4.71v9.643l-2.2.027v-2.05c-1.016 1.302-3.132 2.078-4.892 2.078-2.858 0-4.947-1.219-4.947-3.713 0-1.94 1.374-3.408 3.518-4.073 1.594-.499 3.326-.721 6.322-.776v-.859c0-1.829-1.43-3.048-3.491-3.048-2.09 0-3.738.887-4.48 2.633l-1.622-1.192c.715-2.05 2.886-3.38 6.102-3.38Zm-4.15 10.695c0 1.164 1.292 1.857 2.858 1.857 2.199 0 4.783-1.247 4.783-3.076v-1.856c-2.804.11-4.343.332-5.635.692-1.154.333-2.006 1.164-2.006 2.383ZM73.94 7.126c2.638 0 5.25 1.607 5.25 5.264v8.867h-2.2v-8.645c0-2.522-1.43-3.547-3.243-3.547-2.144 0-4.068 1.635-4.068 4.6v7.592h-2.2v-8.645c0-2.522-1.428-3.547-3.242-3.547s-4.068 1.358-4.068 4.794v7.398h-2.2V7.403h1.925l.137 2.161c.99-1.69 2.694-2.438 4.398-2.438 1.924 0 3.82.859 4.728 2.715.852-1.884 3.05-2.715 4.783-2.715Zm8.949-2.272c-.908 0-1.65-.749-1.65-1.663a1.66 1.66 0 0 1 1.65-1.662 1.66 1.66 0 0 1 1.649 1.662c0 .914-.742 1.663-1.65 1.663Zm-1.1 16.403V7.403h2.199v13.854h-2.2ZM86.738 1.03h2.17v20.227h-2.17V1.03Zm7.806 16.403c0 1.358.77 2.078 1.979 2.078.989 0 1.759-.526 2.474-.942l.714 1.718c-.852.776-2.034 1.247-3.545 1.247-2.035 0-3.821-1.025-3.821-3.713V9.314h-2.75V7.403h2.75V3.468h2.199v3.935h5.085v1.911h-5.085v8.119Zm5.16-3.048c0-4.045 3.216-7.287 7.147-7.287 3.93 0 7.146 3.242 7.146 7.287 0 4.018-3.216 7.094-7.146 7.094-3.931 0-7.147-3.076-7.147-7.094Zm2.199-.055c0 2.854 2.171 5.015 4.948 5.015 2.776 0 4.947-2.161 4.947-5.015 0-2.854-2.171-5.182-4.947-5.182-2.777 0-4.948 2.328-4.948 5.182Zm19.738-7.204c2.941 0 5.36 1.69 5.36 5.264v8.867h-2.199v-8.091c0-3.076-1.484-4.101-3.381-4.101-2.006 0-4.26 1.275-4.26 4.821v7.371h-2.199V7.403h1.924l.137 2.161c.962-1.746 2.721-2.438 4.618-2.438ZM9.719 7.227V0h2.53v7.227H9.72Z" style="fill:#000;fill-opacity:1"/><path d="M9.022 12.007 0 8.369.94 6l10.073 4.062L21.087 6l.94 2.369-8.978 3.62 6.552 8.439L17.608 22l-6.566-8.458-6.181 8.43-2.035-1.516 6.196-8.45v.001Z" style="fill:#000;fill-opacity:1"/></g></g></g><defs><clipPath id="a"><path fill="#fff" d="M0 0h128v22H0z" style="fill:#fff;fill-opacity:1"/></clipPath><clipPath id="b"><path fill="#fff" d="M0 0h127v22H0z" style="fill:#fff;fill-opacity:1"/></clipPath><clipPath id="c"><path fill="#fff" d="M0 0h127v22H0z" style="fill:#fff;fill-opacity:1"/></clipPath></defs></svg>