<svg xmlns="http://www.w3.org/2000/svg" width="104" height="23" fill="none"><path fill="#fff" fill-rule="evenodd" d="M10.661 1.24c-.274.069-1.637.392-3.03.719C2.438 3.175 2.447 3.173 2.25 3.423c-.196.25-.236.659-.09.931.102.19 4.521 3.319 4.892 3.463.224.088 1.949-.273 5.04-1.053l.777-.196-.026-1.805c-.038-2.571-.158-3.122-.762-3.49-.332-.202-.714-.211-1.42-.033m3.093.673c-.108.1-.223.29-.256.422-.054.215.03 4.01.09 4.07.014.014.511-.093 1.104-.238.594-.144 1.73-.41 2.526-.591 1.658-.376 1.878-.452 1.838-.633-.016-.072-1.024-.825-2.24-1.672-1.867-1.301-2.263-1.542-2.539-1.542a.8.8 0 0 0-.523.184M.572 5.108c-.151.069-.35.24-.443.38-.161.246-.163.432-.051 5.145.072 3.03.154 5.006.217 5.197.14.428.457.631 1.168.75.566.093.69.08 1.716-.179a127 127 0 0 1 1.965-.478c.473-.11.957-.236 1.076-.281l.217-.083-.065-1.149c-.035-.632-.096-2.194-.134-3.472-.058-1.914-.097-2.363-.219-2.549-.231-.353-4.526-3.317-4.875-3.365a1.2 1.2 0 0 0-.572.084m15.2 1.658c-1.145.273-2.108.524-2.14.557-.033.032-.012 1.75.046 3.819.094 3.321.125 3.788.265 4.002.088.133.189.243.225.243s.188.106.337.236.74.55 1.311.935c.572.385 1.484 1.011 2.027 1.392.82.575 1.046.692 1.338.692.253 0 .414-.062.574-.221.194-.195.224-.31.236-.928.008-.387.011-.763.007-.835a316 316 0 0 1-.06-2.035c-.235-8.266-.19-7.843-.864-8.203-.48-.257-1.014-.2-3.303.346Zm-5.156 1.211c-.995.243-1.98.488-2.19.545-.474.128-1.055.616-1.318 1.108-.193.362-.2.453-.177 2.59.024 2.264.084 3.285.189 3.22.032-.02.222-.06.42-.092a5 5 0 0 0 .637-.145c.152-.05.538-.147.86-.217l1.488-.326c1.315-.287 1.916-.696 2.319-1.58.186-.409.213-1.417.11-4.055l-.06-1.507-.235.008c-.129.005-1.048.208-2.043.451m.904 7.355c-.248.066-1.103.271-1.899.457-.796.184-1.705.404-2.02.487l-.575.15.062 2.08c.033 1.145.102 2.241.152 2.438.05.195.226.49.39.655.396.396.624.39 2.542-.057 5.298-1.237 6.215-1.462 6.457-1.588.526-.271.714-1.072.357-1.524-.102-.13-.825-.689-1.605-1.24-.78-.552-1.702-1.21-2.048-1.462-.71-.517-1.063-.594-1.813-.396m-5.743 1.366C.665 17.903.622 17.916.622 18.278c0 .126.625.612 2.22 1.728 1.91 1.337 2.271 1.556 2.574 1.563a.98.98 0 0 0 .605-.178c.475-.35.494-.475.425-2.747-.035-1.145-.088-2.077-.118-2.072s-.277.062-.55.126Z" clip-rule="evenodd"/><path fill="#fff" d="M29.188 18V5.4h4.41l2.178 10.98h.324L38.278 5.4h4.41V18h-2.304V7.146h-.324L37.9 18h-3.924l-2.16-10.854h-.324V18zm14.409 0 3.312-12.6h4.14L54.361 18h-2.448l-.684-2.772h-4.5L46.045 18zm3.69-4.968h3.384l-1.53-6.138h-.324zm12.665 5.22q-2.34 0-3.708-1.296-1.368-1.314-1.368-3.744v-3.024q0-2.43 1.368-3.726 1.368-1.314 3.708-1.314 2.322 0 3.582 1.278 1.278 1.26 1.278 3.474v.108h-2.34v-.18q0-1.116-.63-1.836-.612-.72-1.89-.72-1.26 0-1.98.774c-.72.774-.72 1.218-.72 2.106v3.096q0 1.314.72 2.106.72.774 1.98.774 1.278 0 1.89-.72.63-.738.63-1.836v-.324h2.34v.252q0 2.214-1.278 3.492-1.26 1.26-3.582 1.26M66.148 18V5.4h2.376v5.202h4.68V5.4h2.376V18h-2.376v-5.238h-4.68V18zm11.212 0V5.4h2.376V18zm4.146 0V5.4h4.518l2.502 10.98h.324V5.4h2.34V18h-4.518L84.17 7.02h-.324V18zm10.595 0 3.312-12.6h4.14l3.312 12.6h-2.448l-.684-2.772h-4.5L94.549 18zm3.69-4.968h3.384l-1.53-6.138h-.324z"/></svg>