<svg xmlns="http://www.w3.org/2000/svg" width="104" height="23" fill="none"><mask id="a" width="104" height="23" x="0" y="0" maskUnits="userSpaceOnUse" style="mask-type:luminance"><path fill="#fff" d="M103.075 0H.475v22.8h102.6V0Z" style="fill:#fff;fill-opacity:1"/></mask><g mask="url(#a)"><mask id="b" width="104" height="23" x="0" y="0" maskUnits="userSpaceOnUse" style="mask-type:luminance"><path fill="#fff" d="M103.075 0H.475v22.8h102.6V0Z" style="fill:#fff;fill-opacity:1"/></mask><g mask="url(#b)"><mask id="c" width="103" height="23" x="0" y="0" maskUnits="userSpaceOnUse" style="mask-type:luminance"><path fill="#fff" d="M102.907 0H.475v22.207h102.432V0Z" style="fill:#fff;fill-opacity:1"/></mask><g fill="#000" mask="url(#c)"><path d="M43.286 16.226c-1.786 3.86-5.199 5.981-9.698 5.981-5.958 0-10.473-4.727-10.473-11.088C23.115 4.758 27.66 0 33.664 0c5.692 0 10.146 4.575 10.374 10.693v1.528H27.835v.509c.593 3.253 2.82 5.411 5.753 5.411.965 0 1.976-.091 2.949-.517.927-.41 1.793-1.117 2.538-2.302l4.218.912-.007-.008Zm-15.33-7.494v.297h11.112v-.525a5.515 5.515 0 0 0-1.954-3.192 5.282 5.282 0 0 0-3.503-1.155 5.7 5.7 0 0 0-3.542 1.186 5.95 5.95 0 0 0-2.105 3.146v.038l-.008.038v.167ZM15.949 14.95a6.059 6.059 0 0 1-2.037 1.74 5.86 5.86 0 0 1-2.72.677 5.865 5.865 0 0 1-2.889-.768 6.174 6.174 0 0 1-2.174-2.097 6.406 6.406 0 0 1-.927-2.919 6.421 6.421 0 0 1 .54-3.017 6.206 6.206 0 0 1 1.877-2.379 5.883 5.883 0 0 1 5.723-.82A6.097 6.097 0 0 1 15.69 7.03h5.51c-.881-2.31-2.485-4.256-4.567-5.51A10.41 10.41 0 0 0 9.359.168C6.851.616 4.587 1.977 2.96 3.998a11.345 11.345 0 0 0-2.485 7.22c.023 2.63.958 5.169 2.622 7.16 1.672 1.983 3.96 3.298 6.475 3.7a10.478 10.478 0 0 0 7.25-1.511c2.053-1.3 3.626-3.284 4.462-5.617h-5.335ZM54.414 2.63v-.015a8.66 8.66 0 0 1 3.01-1.999 8.68 8.68 0 0 1 3.571-.608h.031c.372-.022.744 0 1.11.076l-.274 4.895h-.89a8.588 8.588 0 0 0-5.213 1.474v.008a6.894 6.894 0 0 0-2.22 2.842 12.596 12.596 0 0 0-.95 4.249v2.166a7.549 7.549 0 0 1-.85 3.169 7.492 7.492 0 0 1-2.128 2.5 5.21 5.21 0 0 1-2.706.965V7.403c-.03-1.2.213-2.386.722-3.465a7.68 7.68 0 0 1 2.212-2.767c.813-.6 1.778-.95 2.781-1.01v3.951l.563.137A5.849 5.849 0 0 1 54.42 2.63h-.007Zm43.751 6.976c1.62.456 2.805 1.178 3.588 2.144.775.957 1.17 2.188 1.155 3.693 0 2.105-.783 3.785-2.181 4.94-1.406 1.163-3.466 1.832-6.043 1.832-3.04 0-4.97-.821-6.186-1.801a6.022 6.022 0 0 1-1.885-2.607l4.956-1.08c.334.57.813 1.042 1.39 1.369.631.364 1.36.532 2.083.478 1.14 0 1.96-.364 2.493-.896a2.57 2.57 0 0 0 .76-1.802c0-.592-.168-1.079-.525-1.49-.35-.402-.851-.676-1.49-.85l-4.202-1.178c-1.771-.487-3.078-1.224-3.945-2.19-.858-.957-1.3-2.165-1.3-3.64 0-1.968.76-3.594 2.083-4.727C90.24.67 92.146 0 94.464 0c3.755 0 6.605 1.672 7.805 4.492l-4.484.965a3.566 3.566 0 0 0-1.276-1.429 3.516 3.516 0 0 0-2.052-.555c-.836 0-1.55.22-2.068.639-.524.425-.82 1.033-.82 1.755 0 .639.235 1.186.699 1.627.456.433 1.117.744 1.953.965l3.937 1.132.007.015ZM81.566 3.245A10.979 10.979 0 0 0 67.643 1.87a11.083 11.083 0 0 0-4.059 4.978 11.183 11.183 0 0 0-.63 6.422 11.18 11.18 0 0 0 3.017 5.684 11.077 11.077 0 0 0 5.647 3.04c.714.145 1.428.213 2.15.213 1.444 0 2.881-.289 4.226-.843a11.1 11.1 0 0 0 4.948-4.09 11.21 11.21 0 0 0 1.862-6.17 11.13 11.13 0 0 0-3.238-7.859ZM78.161 15.52a6.17 6.17 0 0 1-7.843.775 6.198 6.198 0 0 1-2.28-2.804 6.304 6.304 0 0 1-.357-3.61 6.267 6.267 0 0 1 1.702-3.2 6.181 6.181 0 0 1 3.177-1.71 6.227 6.227 0 0 1 3.587.358 6.206 6.206 0 0 1 2.79 2.302 6.252 6.252 0 0 1 1.04 3.474 6.265 6.265 0 0 1-1.816 4.415Z" style="fill:#000;fill-opacity:1"/></g></g></g></svg>