<svg xmlns="http://www.w3.org/2000/svg" width="128" height="24" fill="none"><g clip-path="url(#a)"><g fill="#000" clip-path="url(#b)"><path d="M10.323 16.02c-.826 0-1.504-.054-2.034-.159-.52-.105-.943-.306-1.271-.602-.233-.21-.455-.316-.667-.316a.708.708 0 0 0-.493.187.576.576 0 0 0-.206.444c0 .048.01.12.03.215.033.086.086.197.16.33.265.431.329.914.19 1.45a11.997 11.997 0 0 1-.54 1.606l-1.175 2.783H1.059L10.212 1.3h3.464l9.152 20.66H19.57l-1.176-2.784a11.857 11.857 0 0 1-.54-1.607c-.138-.535-.074-1.018.19-1.449.085-.133.138-.244.159-.33.022-.095.032-.167.032-.215a.58.58 0 0 0-.206-.444.708.708 0 0 0-.493-.187c-.212 0-.434.105-.667.316-.33.296-.758.497-1.287.602-.52.105-1.192.158-2.018.158h-3.242Zm2.225-2.296c.879 0 1.578.076 2.097.23.53.143.943.324 1.239.544.096.067.196.14.302.215a.785.785 0 0 0 .398.101.71.71 0 0 0 .492-.172.552.552 0 0 0 .207-.445.737.737 0 0 0-.096-.33c-.053-.124-.185-.258-.397-.402-.392-.277-.768-.679-1.128-1.205a11.134 11.134 0 0 1-.922-1.736l-1.525-3.6c-.413-.967-.636-1.694-.667-2.18-.032-.499.058-.88.27-1.149.159-.22.238-.435.238-.646a.893.893 0 0 0-.334-.703 1.086 1.086 0 0 0-.778-.3c-.297 0-.556.1-.78.3a.895.895 0 0 0-.332.703c0 .211.074.416.222.617.212.287.302.68.27 1.177-.021.487-.238 1.214-.651 2.18l-1.526 3.601a11.216 11.216 0 0 1-.921 1.736c-.35.536-.726.938-1.13 1.205-.2.144-.332.278-.396.402a.748.748 0 0 0-.095.33c0 .182.063.33.19.445a.77.77 0 0 0 .509.172.699.699 0 0 0 .38-.1c.118-.077.224-.149.319-.216.297-.22.705-.4 1.224-.545.529-.153 1.234-.229 2.113-.229h1.208Zm12.815 8.234V1.3h6.515c.614 0 1.313.02 2.097.058.795.028 1.59.124 2.384.287a7.521 7.521 0 0 1 2.224.817 4.456 4.456 0 0 1 1.637 1.593c.413.68.62 1.56.62 2.64 0 1.3-.366 2.343-1.097 3.127-.72.785-1.71 1.306-2.97 1.564 1.683.277 2.885.851 3.606 1.722.72.87 1.08 1.922 1.08 3.156 0 1.128-.243 2.056-.73 2.783a5.083 5.083 0 0 1-1.892 1.68 8.94 8.94 0 0 1-2.463.86c-.868.172-1.705.277-2.51.315-.795.038-1.457.057-1.986.057h-6.515Zm2.542-10.516a.7.7 0 0 0 .382-.1c.116-.076.222-.148.317-.215.297-.22.705-.402 1.224-.545.53-.153 1.234-.23 2.113-.23.51 0 1.091-.019 1.748-.057a7.539 7.539 0 0 0 1.907-.359 3.328 3.328 0 0 0 1.541-1.004c.413-.478.62-1.148.62-2.009 0-.88-.212-1.549-.636-2.008a3.272 3.272 0 0 0-1.557-.96 7.274 7.274 0 0 0-1.938-.317 39.802 39.802 0 0 0-1.732-.043c-.297 0-.753-.048-1.367-.144-.614-.095-1.282-.42-2.002-.975a3.041 3.041 0 0 0-.318-.215.86.86 0 0 0-.492-.13.988.988 0 0 0-.684.26.777.777 0 0 0-.286.616c0 .162.043.301.128.416.084.105.211.23.381.373.402.354.688.784.858 1.291.18.497.27 1.052.27 1.664v.416c0 1.416-.275 2.42-.826 3.013-.074.086-.154.182-.239.287a.567.567 0 0 0-.11.36c0 .18.063.328.19.443a.766.766 0 0 0 .508.172Zm-.19 9.684a.948.948 0 0 0 .492-.114 5.53 5.53 0 0 0 .318-.23c.72-.564 1.382-.889 1.986-.976.615-.095 1.07-.143 1.367-.143.678 0 1.387-.019 2.13-.057a8.981 8.981 0 0 0 2.08-.373c.647-.21 1.171-.555 1.574-1.033.413-.479.62-1.153.62-2.023 0-.88-.213-1.559-.636-2.037-.413-.488-.948-.837-1.605-1.048a8.043 8.043 0 0 0-2.066-.373 31.146 31.146 0 0 0-2.034-.07c-.879 0-1.583-.078-2.113-.23-.519-.154-.927-.336-1.224-.546a2.44 2.44 0 0 0-.317-.215.7.7 0 0 0-.382-.1.771.771 0 0 0-.508.171.573.573 0 0 0-.19.445.63.63 0 0 0 .11.373l.24.273c.55.593.825 1.583.825 2.97v.717a4.86 4.86 0 0 1-.27 1.664c-.17.497-.456.928-.858 1.291a2.38 2.38 0 0 0-.38.388.618.618 0 0 0-.129.401c0 .24.096.445.286.617a.987.987 0 0 0 .684.258Zm17.566.832V1.3h3.02v15.208a4.86 4.86 0 0 1-.27 1.664c-.17.497-.457.928-.859 1.291-.17.144-.297.273-.382.388a.623.623 0 0 0-.127.401c0 .24.096.445.286.617a.987.987 0 0 0 .684.258.948.948 0 0 0 .492-.114 5.53 5.53 0 0 0 .318-.23c.72-.564 1.382-.889 1.986-.976.615-.095 1.07-.143 1.367-.143h7.881v2.295H45.281Zm16.836 0V1.3h14.174v2.296h-7.659c-.297 0-.752-.048-1.366-.144-.604-.095-1.266-.42-1.987-.975a2.915 2.915 0 0 0-.317-.215.864.864 0 0 0-.493-.13.984.984 0 0 0-.683.26.774.774 0 0 0-.286.616.68.68 0 0 0 .127.416c.085.105.212.23.381.373.403.354.69.784.858 1.291.18.497.27 1.052.27 1.664v.373c0 1.502-.328 2.55-.985 3.142a.572.572 0 0 0-.19.445c0 .181.063.33.19.444a.788.788 0 0 0 .493.187.704.704 0 0 0 .492-.187c.657-.593 1.822-.889 3.496-.889h7.15v2.295h-7.15c-1.674 0-2.839-.296-3.496-.889a.675.675 0 0 0-.492-.187.713.713 0 0 0-.493.187.582.582 0 0 0-.206.445c0 .153.07.301.206.444.657.593.985 1.65.985 3.171v.775a4.86 4.86 0 0 1-.27 1.664 3.027 3.027 0 0 1-.858 1.291 2.466 2.466 0 0 0-.38.388.617.617 0 0 0-.128.401c0 .24.095.445.286.617.19.172.418.258.683.258a.952.952 0 0 0 .493-.114 5.14 5.14 0 0 0 .317-.23c.721-.564 1.383-.889 1.987-.976.614-.095 1.07-.143 1.366-.143h8.2v2.295H62.116Zm20.441.201c-.646 0-1.192-.201-1.637-.602-.445-.411-.667-.904-.667-1.478 0-.583.222-1.076.667-1.478.445-.411.99-.617 1.637-.617.646 0 1.19.206 1.636.617.445.402.668.895.668 1.478 0 .574-.223 1.067-.668 1.478-.445.4-.99.602-1.636.602ZM96.644 6.751v15.207h-3.019V6.751c0-.65.08-1.224.24-1.72a2.75 2.75 0 0 1 .777-1.25c.138-.124.244-.239.318-.344a.595.595 0 0 0 .127-.387.684.684 0 0 0-.254-.545.888.888 0 0 0-.62-.23.843.843 0 0 0-.445.115 3.041 3.041 0 0 0-.318.215c-.572.421-1.144.693-1.716.818a8.07 8.07 0 0 1-1.605.172h-4.512V1.3h19.02v2.296h-4.497a8.31 8.31 0 0 1-1.62-.172c-.562-.125-1.129-.397-1.7-.818a3.041 3.041 0 0 0-.319-.215.79.79 0 0 0-.445-.115.886.886 0 0 0-.619.23.682.682 0 0 0-.255.545c0 .153.037.282.112.387.084.105.196.22.333.344.371.326.631.742.78 1.25.158.496.237 1.07.237 1.72ZM115.306.955c2.108 0 3.946.44 5.513 1.32a9.108 9.108 0 0 1 3.639 3.716c.869 1.597 1.303 3.472 1.303 5.624.011 2.152-.418 4.026-1.287 5.623a9.219 9.219 0 0 1-3.639 3.731c-1.567.88-3.41 1.32-5.529 1.32-2.098 0-3.93-.44-5.498-1.32a9.334 9.334 0 0 1-3.655-3.73c-.857-1.598-1.286-3.472-1.286-5.624 0-2.152.429-4.027 1.286-5.624a9.233 9.233 0 0 1 3.655-3.716c1.568-.88 3.4-1.32 5.498-1.32Zm0 2.296c-2.267 0-4.057.746-5.371 2.238-1.303 1.482-1.955 3.524-1.955 6.126 0 2.601.652 4.648 1.955 6.14 1.314 1.492 3.104 2.238 5.371 2.238 2.277 0 4.068-.746 5.371-2.238 1.313-1.492 1.97-3.539 1.97-6.14 0-2.602-.657-4.644-1.97-6.126-1.303-1.492-3.094-2.238-5.371-2.238Z" style="fill:#000;fill-opacity:1"/></g></g><defs><clipPath id="a"><path fill="#fff" d="M0 0h127v24H0z" style="fill:#fff;fill-opacity:1"/></clipPath><clipPath id="b"><path fill="#fff" d="M0 0h127v24H0z" style="fill:#fff;fill-opacity:1"/></clipPath></defs></svg>