<svg xmlns="http://www.w3.org/2000/svg" width="80" height="20" fill="none"><g clip-path="url(#a)"><g fill="#000" clip-path="url(#b)"><path d="M40.668 3.111a23.702 23.702 0 0 0-4.041 3.1 107.953 107.953 0 0 0-3.697 3.592 69.426 69.426 0 0 0-2.02 2.11l-1.977 2.156c-.357.434-.73.853-1.118 1.257-.387.405-.76.825-1.118 1.258a17.229 17.229 0 0 0 1.763-.539c.54-.19 1.086-.37 1.633-.539a15.54 15.54 0 0 0 1.376-.36c.48-.148.968-.267 1.46-.359.48-.118.97-.179 1.463-.179.516-.03.988.045 1.418.224.545.21.874.57.989 1.078.086.33.057.644-.086.943.478-.147.952-.31 1.418-.494.488-.18.946-.344 1.376-.494L42 15.057a18.862 18.862 0 0 1 2.536-.719c.23-.06.502-.09.817-.09.344-.03.645 0 .903.09s.444.255.559.494c.143.21.157.524.042.943-.086.27-.257.494-.515.674a3.644 3.644 0 0 1-.903.36c-.341.088-.685.163-1.032.224a4.33 4.33 0 0 0-.816.134 82.75 82.75 0 0 0-2.88.943l-2.837.9c-.527.16-1.058.31-1.591.448-.573.18-1.118.21-1.633.09a1.64 1.64 0 0 1-.645-.27c-.487-.389-.716-.748-.688-1.078.029-.329.158-.658.387-.988h-.516c-1.031.18-2.063.405-3.095.674-.852.246-1.698.516-2.536.808-.834.3-1.7.496-2.58.584-.314.03-.63-.03-.945-.18-.315-.12-.544-.374-.687-.763a1.331 1.331 0 0 1 0-.943 4.14 4.14 0 0 1 .472-.943c-.831.51-1.62.943-2.364 1.302-.716.33-1.261.57-1.633.72-.8.351-1.602.695-2.407 1.031-.86.36-1.72.524-2.58.494-.945-.059-1.518-.329-1.72-.808-.2-.479-.156-1.078.13-1.796.258-.748.674-1.542 1.247-2.38a31.102 31.102 0 0 1 1.805-2.47 45.612 45.612 0 0 1 1.805-2.02c.545-.6.903-.989 1.075-1.168l.602-.629h-2.45c-.803 0-1.62.015-2.45.045-1.663.06-3.31.15-4.944.27a93 93 0 0 0-4.986.404c-.602.09-1.19.18-1.762.27-.602.06-1.204.163-1.806.313-.143.03-.301.075-.473.135a.643.643 0 0 1-.473 0c-.315-.12-.458-.33-.43-.629 0-.329.144-.539.43-.628A54.385 54.385 0 0 1 11.05 7.153c3.59-.267 7.189-.432 10.789-.494a144.36 144.36 0 0 1 2.235-2.11c.753-.696 1.513-1.385 2.278-2.066.373-.359.803-.808 1.29-1.347.516-.569 1.032-.928 1.548-1.078.286-.09.53-.075.73.045.23.09.402.254.516.494.115.21.158.45.129.718-.03.27-.143.51-.344.72A214.21 214.21 0 0 0 27.6 4.368a62.805 62.805 0 0 0-2.536 2.335c.43 0 .83.06 1.204.18.343.09.644.24.902.45.287.208.487.523.602.942.086.36.043.674-.13.943-.165.235-.387.42-.644.54a1.5 1.5 0 0 1-.816.044c-.258-.09-.46-.285-.602-.584a5.144 5.144 0 0 0-1.29-.314 7.581 7.581 0 0 0-1.375-.135l-.43.404a391.213 391.213 0 0 0-3.74 3.772c-1.29 1.347-2.307 2.8-3.052 4.356a22.068 22.068 0 0 0 3.095-.898c1.063-.39 2.11-.824 3.138-1.302a58.666 58.666 0 0 0 3.052-1.527 35.866 35.866 0 0 0 2.794-1.75 121.158 121.158 0 0 1 3.31-3.414 90.472 90.472 0 0 1 3.482-3.279 70.334 70.334 0 0 1 2.192-1.93 31.51 31.51 0 0 1 2.278-1.752c.316-.239.66-.389 1.032-.449.4-.09.73.075.989.494.143.27.172.57.086.898a1.103 1.103 0 0 1-.473.718Z" style="fill:#000;fill-opacity:1"/><path d="M65.81 16.628c-.667.062-1.329.182-1.977.36-.63.15-1.275.299-1.934.449a408.43 408.43 0 0 1-5.116 1.212 48.599 48.599 0 0 1-5.158.809c-.485.062-.973.107-1.461.134a8.505 8.505 0 0 1-1.505-.044 5.86 5.86 0 0 1-1.418-.36 3.513 3.513 0 0 1-1.247-.718 2.863 2.863 0 0 1-.731-.943c-.2-.36-.315-.734-.344-1.123a2.48 2.48 0 0 1 .086-1.123 2.32 2.32 0 0 1 .645-1.033c.201-.21.516-.374.946-.494.458-.15.96-.254 1.504-.314a9.91 9.91 0 0 1 1.634-.045c.544.03 1.017.135 1.418.315.402.179.674.434.817.763.172.299.158.689-.043 1.167-.172.36-.43.614-.774.764-.343.15-.73.254-1.16.314-.444.03-.889.03-1.333 0a28.823 28.823 0 0 1-1.203-.18c.114.12.343.225.687.315.344.06.702.105 1.075.135.358.028.716.043 1.075.045h.644c1.402-.12 2.794-.33 4.17-.63 1.394-.296 2.783-.61 4.17-.942 1.003-.24 1.991-.48 2.966-.72a21.415 21.415 0 0 1 3.008-.582c.43-.03.789.075 1.075.314.287.239.473.524.559.853.086.3.043.584-.129.854-.143.269-.459.418-.946.448Z" style="fill:#000;fill-opacity:1"/><path d="M78.782 16.628c-1.46.03-2.95.075-4.47.135a16.038 16.038 0 0 1-4.47-.539.732.732 0 0 1-.344-.09 5.646 5.646 0 0 1-.773 1.483c-.306.438-.667.83-1.075 1.167-.396.326-.849.57-1.333.718a2.4 2.4 0 0 1-1.375.046c-.43-.12-.745-.345-.946-.674a2.194 2.194 0 0 1-.388-1.123 3.198 3.198 0 0 1 .173-1.257c.114-.419.286-.794.515-1.123a3.459 3.459 0 0 1 1.42-1.078 2.439 2.439 0 0 1 1.719-.089c.056-.42.287-.749.688-.988.4-.24.83-.21 1.288.089.431.27.894.482 1.376.629a9.283 9.283 0 0 0 1.59.225c.546.029 1.076.045 1.592.045.544-.03 1.06-.045 1.547-.045.573 0 1.188-.03 1.849-.09.659-.09 1.26-.045 1.805.135.314.119.53.314.644.583.144.27.187.539.13.809a1.203 1.203 0 0 1-.344.718c-.201.21-.474.314-.817.314Zm-12.852.584c.086-.09.258-.134.515-.134v-.405a2.55 2.55 0 0 1-.256.225.56.56 0 0 0-.258.314Z" style="fill:#000;fill-opacity:1"/></g></g><defs><clipPath id="a"><path fill="#fff" d="M0 0h80v20H0z" style="fill:#fff;fill-opacity:1"/></clipPath><clipPath id="b"><path fill="#fff" d="M0 0h80v20H0z" style="fill:#fff;fill-opacity:1"/></clipPath></defs></svg>