<svg xmlns="http://www.w3.org/2000/svg" width="257" height="42" fill="none"><g clip-path="url(#a)"><g fill="#fff" clip-path="url(#b)"><path d="m9.382 34.634 8.812-10.013c.452-.421.729-.973.78-1.56a1.025 1.025 0 0 0-.128-.534 1.135 1.135 0 0 0-.394-.414 2.447 2.447 0 0 0-1.392-.36 6.963 6.963 0 0 0-.655.05L2.258 23.536V16.42l14.147 1.75c.216.029.436.044.655.05.496.021.986-.11 1.392-.372.167-.108.3-.251.392-.418.09-.166.136-.35.13-.536a2.368 2.368 0 0 0-.75-1.542L9.355 5.195l7.145-3.55 5.323 11.876c.158.443.44.844.815 1.162.136.13.295.234.476.304.179.069.373.107.569.107.196 0 .39-.038.569-.107.18-.07.34-.173.476-.304.37-.321.648-.72.81-1.162l5.278-11.876 7.273 3.55-8.953 10.158a2.487 2.487 0 0 0-.78 1.587c-.003.178.041.357.129.517.09.162.218.3.38.404.423.26.926.385 1.435.36.234.006.467-.011.698-.05l14.071-1.75v7.114L31 21.803a4.019 4.019 0 0 0-.76-.052 2.52 2.52 0 0 0-1.394.33 1.113 1.113 0 0 0-.374.395 1.013 1.013 0 0 0-.128.508 2.7 2.7 0 0 0 .788 1.636l8.916 10.013-7.244 3.677-5.308-11.865a2.947 2.947 0 0 0-.808-1.162 1.461 1.461 0 0 0-.476-.302 1.573 1.573 0 0 0-1.137 0c-.18.07-.342.173-.477.302a3.242 3.242 0 0 0-.837 1.162l-5.32 11.865-7.058-3.677Zm59.194-3.231c-7.622 0-11.336-2.582-11.336-7.92v-.13h6.899v.919c0 1.617 1.06 1.968 4.584 1.968 2.942 0 3.425-.394 3.425-1.487 0-1.182-.675-1.444-3.908-1.97l-3.668-.611c-4.775-.79-7.38-2.627-7.38-6.695 0-4.07 3.666-6.957 10.565-6.957 5.934 0 10.468 2.536 10.468 7.481v.614h-6.899V16c0-1.444-.675-2.23-3.762-2.23-2.894 0-3.57.568-3.57 1.618 0 1.05.433 1.357 3.33 1.88l4.437.833c5.115.874 7.238 2.975 7.238 6.564 0 4.112-3.716 6.737-10.423 6.737Zm20.749-.442h-7.188V1.645h7.188v10.72h.29c1.303-2.056 3.957-3.85 7.815-3.85 6.272 0 8.877 3.806 8.877 8.488v13.958h-7.235V18.315c0-3.063-1.11-4.156-4.777-4.156-3.473 0-4.97 1.05-4.97 4.376V30.96Zm28.021-24.504h-7.094l-.096-4.812h7.19v4.812Zm.144 24.504h-7.238V8.951h7.238v22.01Zm10.845 7.355h-7.237V8.956h6.706v3.238h.241c1.303-2.361 4.101-3.674 7.72-3.674 6.851 0 10.421 4.506 10.421 11.464 0 6.912-3.714 11.419-10.276 11.419-3.86 0-6.224-1.444-7.334-3.326h-.241v10.239Zm0-16.583c0 2.975 1.882 4.07 5.308 4.07 4.197 0 5.306-1.839 5.306-5.82 0-4.025-1.109-5.864-5.306-5.864-3.426 0-5.308 1.095-5.308 4.07v3.544Zm30.426 9.185h-6.706V1.602h7.189V11.97h.289c1.11-1.838 3.716-3.5 7.382-3.5 6.657 0 10.18 4.507 10.18 11.465 0 6.912-3.523 11.419-10.132 11.419-3.762 0-6.658-1.313-7.959-3.675h-.243v3.238Zm.483-9.233c0 2.975 1.93 4.07 5.356 4.07 4.149 0 5.307-1.839 5.307-5.82 0-4.025-1.11-5.864-5.307-5.864-3.426 0-5.356 1.095-5.356 4.07v3.544Zm25.863 9.718c-4.293 0-7.623-2.056-7.623-6.038 0-3.413 2.702-5.514 7.719-6.213l8.298-1.138v-.7c0-2.581-1.543-3.062-4.389-3.062-2.945 0-4.101.744-4.101 2.975v.481h-6.899v-.481c0-5.251 4.487-8.707 11.337-8.707 7.141 0 10.903 3.544 10.903 9.406v13.04h-6.706V27.99h-.289c-1.303 1.62-3.764 3.414-8.25 3.414Zm-.724-6.562c0 1.18 1.014 1.574 3.137 1.574 2.943 0 5.981-.7 5.981-4.113l-6.947.963c-1.495.218-2.171.656-2.171 1.576Zm30.82 6.562c-7.623 0-11.338-2.582-11.338-7.92v-.13h6.899v.919c0 1.617 1.062 1.968 4.583 1.968 2.945 0 3.426-.394 3.426-1.487 0-1.182-.675-1.444-3.908-1.97l-3.667-.611c-4.776-.79-7.382-2.627-7.382-6.695 0-4.07 3.667-6.957 10.567-6.957 5.935 0 10.469 2.536 10.469 7.481v.614h-6.899V16c0-1.444-.677-2.23-3.764-2.23-2.894 0-3.57.568-3.57 1.618 0 1.05.435 1.357 3.329 1.88l4.438.833c5.115.874 7.238 2.975 7.238 6.564 0 4.112-3.714 6.737-10.421 6.737Zm24.985 0c-8.346 0-12.157-4.419-12.157-11.376 0-7.044 4.631-11.507 12.205-11.507 7.286 0 11.579 3.937 11.579 9.67 0 1.225-.194 2.493-.338 3.237h-16.645c.146 3.063 1.497 4.289 5.452 4.289 2.895 0 4.149-.57 4.149-1.925v-.263h7.142v.436c0 4.682-4.44 7.439-11.387 7.439Zm-.193-17.502c-3.473 0-4.826 1.225-5.115 3.544h9.988c.144-2.276-1.495-3.544-4.873-3.544Z"/></g></g><defs><clipPath id="a"><path fill="#fff" d="M0 0h254.375v41.25H0z"/></clipPath><clipPath id="b"><path fill="#fff" d="M0 0h254.375v41.25H0z"/></clipPath></defs></svg>