<svg xmlns="http://www.w3.org/2000/svg" width="24" height="24" fill="none"><path fill="#F97316" d="M15.056.632 12.696 0l-1.989 7.422-1.795-6.7-2.36.632 1.94 7.239L3.66 3.76 1.933 5.49l5.3 5.3-6.6-1.769L0 11.38l7.211 1.932a4.886 4.886 0 1 1 9.521-.007l6.554 1.756.633-2.36-7.24-1.94 6.6-1.768-.632-2.36-7.24 1.94 4.832-4.831-1.728-1.728-5.226 5.226 1.77-6.608Z"/><path fill="#F97316" d="M16.726 13.333a4.876 4.876 0 0 1-1.215 2.24l4.747 4.747 1.728-1.727-5.26-5.26Zm-1.263 2.289a4.883 4.883 0 0 1-2.184 1.291l1.728 6.448 2.36-.633-1.904-7.106Zm-2.272 1.314a4.897 4.897 0 0 1-2.523-.022l-1.73 6.453 2.36.633 1.893-7.064Zm-2.607-.045a4.885 4.885 0 0 1-2.145-1.31l-4.76 4.76 1.728 1.727 5.177-5.177ZM8.4 15.538a4.875 4.875 0 0 1-1.185-2.212L.64 15.088l.632 2.36 7.128-1.91Z"/></svg>