<svg xmlns="http://www.w3.org/2000/svg" width="145" height="20" fill="none"><g clip-path="url(#a)"><g fill="#000" clip-path="url(#b)"><path d="M1.453 18.084H21.47c3.374 0 5.211-1.63 5.211-4.638v-1.087c0-2.995-1.837-4.625-5.21-4.625h-3.13v-1.92c0-3.008-1.852-4.638-5.226-4.638H1.453V4.98h10.573c1.334 0 1.551.181 1.551 1.377v1.377H1.63v3.792h18.737c1.348 0 1.552.193 1.552 1.377 0 1.196-.204 1.377-1.552 1.377H1.453v3.804Zm37.848-10.35v3.792h8.736V7.734h-8.736Zm-.176 10.35h23.731V14.28H39.125v3.804Zm0-13.104h23.377V1.176H39.125V4.98Zm62.661 13.346h2.382V1.176h-4.763v10.99L80.015.934h-2.382v17.15h4.763V6.925l19.39 11.401Zm36.373-17.15h-19.8V4.98h18.697c1.347 0 1.551.181 1.551 1.377v6.546c0 1.196-.204 1.377-1.551 1.377h-18.697v3.804h19.8c3.374 0 5.211-1.63 5.211-4.638V5.814c0-3.008-1.837-4.638-5.211-4.638Z" style="fill:#000;fill-opacity:1"/></g></g><defs><clipPath id="a"><path fill="#fff" d="M0 0h145v20H0z" style="fill:#fff;fill-opacity:1"/></clipPath><clipPath id="b"><path fill="#fff" d="M0 0h145v20H0z" style="fill:#fff;fill-opacity:1"/></clipPath></defs></svg>