<svg xmlns="http://www.w3.org/2000/svg" width="44" height="44" fill="none"><path fill="url(#a)" d="M31.298 6.716a4.244 4.244 0 0 0-4.072-3.048H25.99a4.244 4.244 0 0 0-4.175 3.478l-2.123 11.562.527-1.801a4.244 4.244 0 0 1 4.074-3.053h7.199l3.02 1.175 2.91-1.176h-.85a4.245 4.245 0 0 1-4.072-3.048l-1.2-4.09Z"/><path fill="url(#b)" d="M13.134 37.269a4.244 4.244 0 0 0 4.078 3.065h2.63a4.244 4.244 0 0 0 4.244-4.134l.286-11.15-.6 2.048a4.244 4.244 0 0 1-4.072 3.051h-7.26l-2.587-1.404-2.802 1.404h.836a4.244 4.244 0 0 1 4.076 3.066l1.173 4.054h-.002Z"/><path fill="url(#c)" d="M27.04 3.668H12.338c-4.2 0-6.72 5.552-8.4 11.104-1.992 6.579-4.598 15.374 2.94 15.374h6.348a4.244 4.244 0 0 0 4.084-3.078 1947.893 1947.893 0 0 1 4.557-15.727c.773-2.606 1.415-4.843 2.403-6.238.553-.78 1.476-1.435 2.772-1.435Z"/><path fill="url(#d)" d="M27.04 3.668H12.338c-4.2 0-6.72 5.552-8.4 11.104-1.992 6.579-4.598 15.374 2.94 15.374h6.348a4.244 4.244 0 0 0 4.084-3.078 1947.893 1947.893 0 0 1 4.557-15.727c.773-2.606 1.415-4.843 2.403-6.238.553-.78 1.476-1.435 2.772-1.435Z"/><path fill="url(#e)" d="M16.957 40.334H31.66c4.2 0 6.721-5.553 8.402-11.105 1.99-6.58 4.595-15.377-2.941-15.377h-6.349a4.244 4.244 0 0 0-4.084 3.078 1911.451 1911.451 0 0 1-4.557 15.73c-.772 2.606-1.416 4.844-2.402 6.239-.554.78-1.476 1.435-2.772 1.435Z"/><path fill="url(#f)" d="M16.957 40.334H31.66c4.2 0 6.721-5.553 8.402-11.105 1.99-6.58 4.595-15.377-2.941-15.377h-6.349a4.244 4.244 0 0 0-4.084 3.078 1911.451 1911.451 0 0 1-4.557 15.73c-.772 2.606-1.416 4.844-2.402 6.239-.554.78-1.476 1.435-2.772 1.435Z"/><defs><radialGradient id="a" cx="0" cy="0" r="1" gradientTransform="rotate(-129.304 21.874 1.15) scale(15.8614 14.9147)" gradientUnits="userSpaceOnUse"><stop offset=".096" stop-color="#00AEFF"/><stop offset=".773" stop-color="#2253CE"/><stop offset="1" stop-color="#0736C4"/></radialGradient><radialGradient id="b" cx="0" cy="0" r="1" gradientTransform="rotate(51.84 -25.853 25.528) scale(14.6586 14.2192)" gradientUnits="userSpaceOnUse"><stop stop-color="#FFB657"/><stop offset=".634" stop-color="#FF5F3D"/><stop offset=".923" stop-color="#C02B3C"/></radialGradient><radialGradient id="e" cx="0" cy="0" r="1" gradientTransform="matrix(-11.6152 33.21612 -39.79178 -13.91461 37.875 11.258)" gradientUnits="userSpaceOnUse"><stop offset=".066" stop-color="#8C48FF"/><stop offset=".5" stop-color="#F2598A"/><stop offset=".896" stop-color="#FFB152"/></radialGradient><linearGradient id="c" x1="11.457" x2="13.555" y1="6.876" y2="31.145" gradientUnits="userSpaceOnUse"><stop offset=".156" stop-color="#0D91E1"/><stop offset=".487" stop-color="#52B471"/><stop offset=".652" stop-color="#98BD42"/><stop offset=".937" stop-color="#FFC800"/></linearGradient><linearGradient id="d" x1="13.291" x2="14.437" y1="3.668" y2="30.146" gradientUnits="userSpaceOnUse"><stop stop-color="#3DCBFF"/><stop offset=".247" stop-color="#0588F7" stop-opacity="0"/></linearGradient><linearGradient id="f" x1="39.038" x2="39.022" y1="12.235" y2="19.448" gradientUnits="userSpaceOnUse"><stop offset=".058" stop-color="#F8ADFA"/><stop offset=".708" stop-color="#A86EDD" stop-opacity="0"/></linearGradient></defs></svg>