<svg xmlns="http://www.w3.org/2000/svg" width="26" height="24" fill="none"><path fill="url(#a)" d="m4.418 16.307-.014-.02a1.627 1.627 0 0 1-.467-.988 1.66 1.66 0 0 1 .074-.7c.03-.178.084-.351.16-.514l.053-.114 4.898-8.66h14.58a1.681 1.681 0 0 1 1.655 1.58l.006.107v15.294a1.68 1.68 0 0 1-1.56 1.701l-.108.007H12.011a1.67 1.67 0 0 0 .427-1.314 1.353 1.353 0 0 0-.634-.981l-.1-.067-7.086-5.158-.094-.067v-.006l.094.066a1.679 1.679 0 0 1-.18-.14l-.02-.02v-.006Z"/><path fill="#0073E6" d="M14.046.038a1.675 1.675 0 0 1 1.328.274l4.377 3.15a1.668 1.668 0 0 1 .614 1.867v-.02l-5.671 17.35-.034.133-.02.053-.02.06-.1.214-.013.026-.127.194-.02.027c-.048.058-.1.114-.154.166l-.02.014a1.498 1.498 0 0 1-.387.267l-.02.02a1.126 1.126 0 0 1-.207.087h-.033l-.22.053h-.033c-.08.013-.16.02-.24.02H1.687A1.688 1.688 0 0 1 0 22.29V7.011a1.693 1.693 0 0 1 1.688-1.702h8.722L12.945.84c.214-.372.563-.647.974-.768l.12-.033h.007Z"/><path fill="#3B54EF" d="m20.272 5.31-5.585 17.35-.013.067-.014.067-.02.053-.02.06-.046.107-.054.106-.013.027-.067.1-.06.094-.02.026-.073.087-.08.08-.02.013a1.233 1.233 0 0 1-.174.154l-.1.067-.113.053-.02.013-.1.047-.107.04h-.034l-.106.033-.067.007.067-.067c.27-.343.392-.78.34-1.214a1.353 1.353 0 0 0-.634-.98l-.1-.068-7.087-5.158-.093-.066a1.685 1.685 0 0 1-.173-.174l-.027-.033a1.55 1.55 0 0 1-.08-.094l-.014-.026-.02-.027a1.617 1.617 0 0 1-.113-.2l-.02-.04a1.67 1.67 0 0 1-.1-.28l-.007-.047-.013-.067-.007-.04a1.675 1.675 0 0 1 .034-.674l.013-.06a2.01 2.01 0 0 1 .027-.066c.02-.171.068-.338.14-.494l.066-.114 4.885-8.66h9.822Z"/><defs><linearGradient id="a" x1="14.624" x2="14.624" y1="6.431" y2="25.122" gradientUnits="userSpaceOnUse"><stop offset=".1" stop-color="#FF80FF"/><stop offset=".39" stop-color="#FF7BF9"/><stop offset=".77" stop-color="#FF6EEA"/><stop offset="1" stop-color="#FF62DC"/></linearGradient></defs></svg>