<svg xmlns="http://www.w3.org/2000/svg" width="34" height="24" fill="none"><g clip-path="url(#a)"><path fill="#3B4158" fill-rule="evenodd" d="M8.488 3.527 0 12a24.038 24.038 0 0 0 5.752 4.24c.584 1.548 1.5 3 2.748 4.245 4.694 4.687 12.306 4.687 17 0a11.954 11.954 0 0 0 2.748-4.244A24.036 24.036 0 0 0 34 12l-8.481-8.466a3.094 3.094 0 0 0-.019-.02c-4.694-4.686-12.306-4.686-17 0l-.012.013Zm16.2 14.242a24.078 24.078 0 0 1-15.376 0c.268.355.564.696.888 1.02 3.756 3.748 9.844 3.748 13.6 0a9.68 9.68 0 0 0 .888-1.02ZM10.374 5.042A12.028 12.028 0 0 0 17 7.03a12.04 12.04 0 0 0 6.626-1.987c-3.709-3.523-9.543-3.523-13.252 0Z" clip-rule="evenodd"/></g><defs><clipPath id="a"><path fill="#fff" d="M0 0h34v24H0z"/></clipPath></defs></svg>