<svg xmlns="http://www.w3.org/2000/svg" width="23" height="24" fill="none"><g clip-path="url(#a)"><path fill="#FF630B" fill-rule="evenodd" d="M7.886.302a4.848 4.848 0 0 0-3.46 1.458L0 6.267V8.33c0 1.457.615 2.768 1.595 3.68A5.007 5.007 0 0 0 0 15.687v2.063l4.427 4.507a4.848 4.848 0 0 0 3.459 1.458 4.84 4.84 0 0 0 3.614-1.623 4.84 4.84 0 0 0 3.614 1.623 4.849 4.849 0 0 0 3.46-1.458L23 17.75v-2.063a5.008 5.008 0 0 0-1.595-3.679A5.008 5.008 0 0 0 23 8.33V6.268L18.573 1.76A4.848 4.848 0 0 0 15.114.302 4.84 4.84 0 0 0 11.5 1.926 4.84 4.84 0 0 0 7.886.302Zm6.925 11.707a5.243 5.243 0 0 1-.162-.158L11.5 8.645l-3.149 3.206a5.11 5.11 0 0 1-.162.158 4.9 4.9 0 0 1 .162.158l3.149 3.206 3.149-3.206c.053-.054.107-.107.162-.158Zm-2.033 5.742v.985c0 1.314 1.046 2.379 2.336 2.379.62 0 1.214-.25 1.652-.697l3.679-3.744v-.986c0-1.313-1.047-2.378-2.337-2.378-.62 0-1.214.25-1.652.697l-3.678 3.744Zm-2.556 0-3.678-3.745a2.316 2.316 0 0 0-1.652-.696c-1.29 0-2.336 1.065-2.336 2.378v.986l3.678 3.744a2.315 2.315 0 0 0 1.652.697c1.29 0 2.336-1.065 2.336-2.379v-.985Zm0-12.47v.986l-3.678 3.745a2.315 2.315 0 0 1-1.652.696c-1.29 0-2.336-1.065-2.336-2.378v-.985L6.234 3.6a2.316 2.316 0 0 1 1.652-.697c1.29 0 2.336 1.065 2.336 2.379Zm6.234 4.73-3.678-3.744v-.985c0-1.314 1.046-2.379 2.336-2.379.62 0 1.214.251 1.652.697l3.679 3.745v.985c0 1.313-1.047 2.378-2.337 2.378-.62 0-1.214-.25-1.652-.696Z" clip-rule="evenodd"/></g><defs><clipPath id="a"><path fill="#fff" d="M0 0h23v24H0z"/></clipPath></defs></svg>