<svg xmlns="http://www.w3.org/2000/svg" width="25" height="24" fill="none"><path fill="#17CF97" d="M12.5 6.375C12.5 9.482 9.93 12 6.76 12H1.02V6.375C1.02 3.268 3.59.75 6.76.75c3.17 0 5.74 2.518 5.74 5.625Zm0 11.25c0-3.107 2.57-5.625 5.74-5.625h5.74v5.625c0 3.107-2.57 5.625-5.74 5.625-3.17 0-5.74-2.518-5.74-5.625Zm-11.48 0c0 3.107 2.57 5.625 5.74 5.625h5.74v-5.625C12.5 14.518 9.93 12 6.76 12c-3.17 0-5.74 2.518-5.74 5.625Zm22.96-11.25c0-3.107-2.57-5.625-5.74-5.625H12.5v5.625C12.5 9.482 15.07 12 18.24 12c3.17 0 5.74-2.518 5.74-5.625Z"/></svg>